<?xml version="1.0" encoding="utf-8"?>
<!-- Generator: Adobe Illustrator 24.0.0, SVG Export Plug-In . SVG Version: 6.00 Build 0)  -->
<svg version="1.1" id="Layer_1" xmlns="http://www.w3.org/2000/svg" xmlns:xlink="http://www.w3.org/1999/xlink" x="0px" y="0px"
	 viewBox="0 0 6464 2144" style="enable-background:new 0 0 6464 2144;" xml:space="preserve">
<style type="text/css">
	.st0{fill:#FFFFFF;}
</style>
<g id="svg64" inkscape:version="0.92.3 (2405546, 2018-03-11)" sodipodi:docname="logo.svg" xmlns:cc="http://creativecommons.org/ns#" xmlns:dc="http://purl.org/dc/elements/1.1/" xmlns:inkscape="http://www.inkscape.org/namespaces/inkscape" xmlns:rdf="http://www.w3.org/1999/02/22-rdf-syntax-ns#" xmlns:sodipodi="http://sodipodi.sourceforge.net/DTD/sodipodi-0.dtd" xmlns:svg="http://www.w3.org/2000/svg">
	
		<sodipodi:namedview  bordercolor="#666666" borderopacity="1" gridtolerance="10" guidetolerance="10" id="namedview66" inkscape:current-layer="g62" inkscape:cx="2178.2854" inkscape:cy="2370.7868" inkscape:pageopacity="0" inkscape:pageshadow="2" inkscape:window-height="1027" inkscape:window-maximized="1" inkscape:window-width="1920" inkscape:window-x="1912" inkscape:window-y="-8" inkscape:zoom="0.093201574" objecttolerance="10" pagecolor="#ffffff" showgrid="false">
		</sodipodi:namedview>
	<g>
		<g>
			<path d="M415.5,376.7c28.7,0,55.5,5.1,80.3,15.3c24.9,10.2,46.7,23.6,65.5,40.2s33.5,34.4,44,53.6c10.5,19.1,15.8,37.9,15.8,56.4
				l-12.4-35.4v-95.6c0-5.1,1.7-9.6,5.3-13.4c3.5-3.8,8.1-5.7,13.9-5.7c5.7,0,10.4,1.9,13.9,5.7c3.5,3.8,5.3,8.3,5.3,13.4v411.2
				c0,49.1-10,91.5-30.1,127.2s-47.7,63.1-82.7,82.2c-35.1,19.1-75.9,28.7-122.4,28.7c-25.5,0-51.2-3.3-77-10s-47.3-15.2-64.6-25.3
				c-17.2-10.2-25.8-21-25.8-32.5c0-5.1,1.4-9.2,4.3-12.4c2.9-3.2,6.8-4.8,12-4.8c6.4,0,12.3,3.5,17.7,10.5
				c5.4,7,15.1,13.4,29.2,19.1c5.7,1.9,13.5,4.5,23.4,7.7s21.8,5.9,35.9,8.1c14,2.2,29.6,3.3,46.9,3.3c60.6,0,108.2-18.6,143-55.9
				C591.6,931,609,882.4,609,822.5v-94.7l9.6,1c-7.7,27.4-18.8,50.7-33.5,69.8s-31.4,34.6-50.2,46.4c-18.8,11.8-38.6,20.4-59.3,25.8
				c-20.7,5.4-40.6,8.1-59.8,8.1c-44,0-83.4-11-118.1-33c-34.8-22-62.3-52-82.7-89.9s-30.6-80.8-30.6-128.6s10.2-90.7,30.6-128.6
				s48-67.7,82.7-89.4C332.1,387.6,371.5,376.7,415.5,376.7z M417.4,413.1c-37,0-70.3,9.2-99.9,27.7c-29.6,18.5-52.9,43.8-69.8,76
				s-25.3,69-25.3,110.5c0,40.8,8.4,77.5,25.3,110s40.2,58.2,69.8,77s63,28.2,99.9,28.2c37,0,70.1-9.1,99.5-27.3
				c29.3-18.2,52.6-43.3,69.8-75.6c17.2-32.2,25.8-69.6,25.8-112.4c0-42.7-8.6-80.2-25.8-112.4s-40.5-57.2-69.8-75.1
				C487.5,422,454.4,413.1,417.4,413.1z"/>
			<path d="M1243.7,628.2c0,47.2-10.2,89.7-30.6,127.7c-20.4,37.9-48.3,67.9-83.7,89.9c-35.4,22-75.7,33-121,33
				c-44.6,0-84.8-11-120.5-33s-63.9-52-84.6-89.9c-20.7-37.9-31.1-80.5-31.1-127.7c0-47.8,10.4-90.7,31.1-128.6
				c20.7-37.9,48.9-67.9,84.6-89.9c35.7-22,75.9-33,120.5-33c45.3,0,85.6,11,121,33s63.3,52,83.7,89.9
				C1233.5,537.6,1243.7,580.4,1243.7,628.2z M1205.4,628.2c0-41.4-8.5-78.3-25.3-110.5c-16.9-32.2-40.2-57.7-69.8-76.5
				c-29.6-18.8-63.6-28.2-101.8-28.2c-37.6,0-71.4,9.4-101.4,28.2c-30,18.8-53.6,44.3-70.8,76.5s-25.8,69-25.8,110.5
				c0,40.8,8.6,77.3,25.8,109.5s40.8,57.7,70.8,76.5s63.7,28.2,101.4,28.2c38.3,0,72.2-9.4,101.8-28.2s52.9-44.3,69.8-76.5
				C1196.9,705.6,1205.4,669,1205.4,628.2z"/>
			<path d="M1586,376.7c40.2,0,72.8,8,98,23.9s43.7,37.6,55.5,65s17.7,58,17.7,91.8V850c0,5.1-1.9,9.6-5.7,13.4
				c-3.8,3.8-8.3,5.7-13.4,5.7c-5.7,0-10.4-1.9-13.9-5.7s-5.3-8.3-5.3-13.4V561.3c0-27.4-4.6-52.3-13.9-74.6
				c-9.2-22.3-23.9-40.2-44-53.6s-46.4-20.1-78.9-20.1c-28.1,0-55.5,6.7-82.2,20.1s-48.9,31.2-66.5,53.6
				c-17.5,22.3-26.3,47.2-26.3,74.6v288.8c0,5.1-1.9,9.6-5.7,13.4c-3.8,3.8-8.3,5.7-13.4,5.7c-5.7,0-10.4-1.9-13.9-5.7
				s-5.3-8.3-5.3-13.4v-439c0-5.1,1.9-9.6,5.7-13.4c3.8-3.8,8.3-5.7,13.4-5.7c5.7,0,10.4,1.9,13.9,5.7c3.5,3.8,5.3,8.3,5.3,13.4
				v93.7l-23.9,45.9c0-23,6.1-44.9,18.2-66c12.1-21,28-39.7,47.8-55.9c19.8-16.3,41.6-29,65.5-38.3
				C1538.7,381.4,1562.4,376.7,1586,376.7z"/>
			<path d="M2216.2,832.9c5.1,0,9.6,1.9,13.4,5.7c3.8,3.8,5.7,8,5.7,12.4c0,5.1-1.9,9.4-5.7,12.9s-8.3,5.3-13.4,5.3h-311.8
				c-6.4,0-11.3-2.4-14.8-7.2s-5.3-8.8-5.3-12c0-2.5,0.5-4.8,1.4-6.7c1-1.9,2.1-3.8,3.3-5.7l307.9-432.3l4.8,7.7H1933
				c-5.1,0-9.6-1.9-13.4-5.7c-3.8-3.8-5.7-8-5.7-12.4c0-5.1,1.9-9.4,5.7-12.9c3.8-3.5,8.3-5.3,13.4-5.3h292.6
				c5.1,0,9.4,1.9,12.9,5.7c3.5,3.8,5.6,8.3,6.2,13.4c0,2.6-0.5,4.9-1.4,7.2c-1,2.2-2.1,4.3-3.3,6.2l-306,428.4l-14.3-4.8
				L2216.2,832.9L2216.2,832.9z"/>
			<path d="M2763.2,392c5.7,0,10.4,1.9,13.9,5.7c3.5,3.8,5.3,8.3,5.3,13.4v439c0,5.1-1.9,9.6-5.7,13.4c-3.8,3.8-8.3,5.7-13.4,5.7
				c-5.7,0-10.4-1.9-13.9-5.7s-5.3-8.3-5.3-13.4V714.3l15.3-12.4c0,20.4-5.1,41.1-15.3,62.2c-10.2,21-24.2,40.2-42.1,57.4
				c-17.9,17.2-38.9,31.1-63.1,41.6c-24.2,10.5-50.4,15.8-78.4,15.8c-42.7,0-80.8-11.1-114.3-33.5c-33.5-22.3-59.8-52.6-78.9-90.9
				c-19.1-38.3-28.7-81.3-28.7-129.1c0-48.4,9.7-91.3,29.2-128.6c19.4-37.3,45.9-66.6,79.4-88s71.2-32,113.3-32
				c27.4,0,53.2,4.9,77.5,14.8c24.2,9.9,45.4,23.8,63.6,41.6c18.2,17.9,32.4,38.7,42.6,62.6c10.2,23.9,15.3,49.9,15.3,77.9
				l-15.3-23.9V411.2c0-5.1,1.7-9.6,5.3-13.4C2752.9,393.9,2757.5,392,2763.2,392z M2562.4,842.5c35.7,0,67.6-9.4,95.6-28.2
				s50-44.6,66-77.5c15.9-32.8,23.9-70,23.9-111.4c0-39.5-8-75.4-23.9-107.6c-15.9-32.2-37.9-57.7-66-76.5s-59.9-28.2-95.6-28.2
				c-35.1,0-66.6,9.1-94.7,27.3c-28.1,18.2-50.2,43.2-66.5,75.1c-16.3,31.9-24.4,68.5-24.4,110s8,78.6,23.9,111.4
				c15.9,32.8,37.9,58.7,66,77.5C2494.8,833.1,2526.7,842.5,2562.4,842.5z"/>
			<path d="M2984.1,850.1c0,5.1-1.9,9.6-5.7,13.4c-3.8,3.8-8.3,5.7-13.4,5.7c-5.7,0-10.4-1.9-13.9-5.7s-5.3-8.3-5.3-13.4V180.7
				c0-5.1,1.9-9.6,5.7-13.4c3.8-3.8,8.3-5.7,13.4-5.7c5.7,0,10.4,1.9,13.9,5.7s5.3,8.3,5.3,13.4V850.1z"/>
			<path d="M3585.7,628.2c0,47.2-10.2,89.7-30.6,127.7c-20.4,37.9-48.3,67.9-83.7,89.9s-75.7,33-121,33c-44.6,0-84.8-11-120.5-33
				s-63.9-52-84.6-89.9c-20.7-37.9-31.1-80.5-31.1-127.7c0-47.8,10.4-90.7,31.1-128.6c20.7-37.9,48.9-67.9,84.6-89.9
				c35.7-22,75.9-33,120.5-33c45.3,0,85.6,11,121,33s63.3,52,83.7,89.9C3575.5,537.6,3585.7,580.4,3585.7,628.2z M3547.4,628.2
				c0-41.4-8.5-78.3-25.3-110.5c-16.9-32.2-40.2-57.7-69.8-76.5s-63.6-28.2-101.8-28.2c-37.6,0-71.4,9.4-101.4,28.2
				c-30,18.8-53.6,44.3-70.8,76.5s-25.8,69-25.8,110.5c0,40.8,8.6,77.3,25.8,109.5s40.8,57.7,70.8,76.5s63.7,28.2,101.4,28.2
				c38.3,0,72.2-9.4,101.8-28.2s52.9-44.3,69.8-76.5C3539,705.6,3547.4,669,3547.4,628.2z"/>
			<path d="M4407.1,628.2c0,47.2-10.2,89.7-30.6,127.7c-20.4,37.9-48.3,67.9-83.7,89.9c-35.4,22-75.7,33-121,33
				c-44.6,0-84.8-11-120.5-33s-63.9-52-84.6-89.9c-20.7-37.9-31.1-80.5-31.1-127.7c0-47.8,10.4-90.7,31.1-128.6
				c20.7-37.9,48.9-67.9,84.6-89.9c35.7-22,75.9-33,120.5-33c45.3,0,85.6,11,121,33s63.3,52,83.7,89.9
				C4396.9,537.6,4407.1,580.4,4407.1,628.2z M4368.9,628.2c0-41.4-8.5-78.3-25.3-110.5c-16.9-32.2-40.2-57.7-69.8-76.5
				c-29.6-18.8-63.6-28.2-101.8-28.2c-37.6,0-71.4,9.4-101.4,28.2c-30,18.8-53.6,44.3-70.8,76.5s-25.8,69-25.8,110.5
				c0,40.8,8.6,77.3,25.8,109.5s40.8,57.7,70.8,76.5s63.7,28.2,101.4,28.2c38.3,0,72.2-9.4,101.8-28.2
				c29.6-18.8,52.9-44.3,69.8-76.5C4360.4,705.6,4368.9,669,4368.9,628.2z"/>
			<path d="M4575.4,850.1c0,5.1-1.9,9.6-5.7,13.4c-3.8,3.8-8.3,5.7-13.4,5.7c-5.7,0-10.4-1.9-13.9-5.7s-5.3-8.3-5.3-13.4V180.7
				c0-5.1,1.9-9.6,5.7-13.4s8.3-5.7,13.4-5.7c5.7,0,10.4,1.9,13.9,5.7s5.3,8.3,5.3,13.4V850.1z"/>
			<path d="M5130.1,392c5.7,0,10.4,1.9,13.9,5.7c3.5,3.8,5.3,8.3,5.3,13.4v439c0,5.1-1.9,9.6-5.7,13.4c-3.8,3.8-8.3,5.7-13.4,5.7
				c-5.7,0-10.4-1.9-13.9-5.7s-5.3-8.3-5.3-13.4V714.3l15.3-12.4c0,20.4-5.1,41.1-15.3,62.2c-10.2,21-24.2,40.2-42.1,57.4
				s-38.9,31.1-63.1,41.6s-50.4,15.8-78.4,15.8c-42.7,0-80.8-11.1-114.3-33.5c-33.5-22.3-59.8-52.6-78.9-90.9s-28.7-81.3-28.7-129.1
				c0-48.4,9.7-91.3,29.2-128.6c19.4-37.3,45.9-66.6,79.4-88s71.2-32,113.3-32c27.4,0,53.2,4.9,77.5,14.8
				c24.2,9.9,45.4,23.8,63.6,41.6c18.2,17.9,32.4,38.7,42.6,62.6s15.3,49.9,15.3,77.9l-15.3-23.9V411.2c0-5.1,1.7-9.6,5.3-13.4
				C5119.7,393.9,5124.4,392,5130.1,392z M4929.3,842.5c35.7,0,67.6-9.4,95.6-28.2s50-44.6,66-77.5c15.9-32.8,23.9-70,23.9-111.4
				c0-39.5-8-75.4-23.9-107.6c-15.9-32.2-37.9-57.7-66-76.5s-59.9-28.2-95.6-28.2c-35.1,0-66.6,9.1-94.7,27.3
				c-28.1,18.2-50.2,43.2-66.5,75.1c-16.3,31.9-24.4,68.5-24.4,110s8,78.6,23.9,111.4c15.9,32.8,37.9,58.7,66,77.5
				C4861.7,833.1,4893.6,842.5,4929.3,842.5z"/>
			<path d="M5285,374.8c3.2,0,6.5,1.1,10,3.3c3.5,2.2,5.9,5.3,7.2,9.1l176.9,423.7l-9.6,6.7l179.8-430.3c3.2-8.3,9.9-12.4,20.1-12.4
				c3.2,0,7,1.3,11.5,3.8c4.5,2.6,6.7,6.4,6.7,11.5c0,3.2-0.3,5.6-1,7.2c-0.6,1.6-1.3,3-1.9,4.3l-190.3,455.2
				c-3.2,8.3-9.3,12.4-18.2,12.4c-3.8,0-7.5-1.1-11-3.3s-5.9-5.3-7.2-9.1l-191.3-454.3c-0.6-1.3-1.1-2.7-1.4-4.3
				c-0.3-1.6-0.5-3-0.5-4.3c0-5.1,1.6-9.6,4.8-13.4C5272.9,376.7,5278,374.8,5285,374.8z"/>
			<path d="M6014.7,878.8c-47.8,0-90.1-10.2-126.7-30.6c-36.7-20.4-65.5-49.3-86.5-86.5s-31.6-81.1-31.6-131.5
				c0-53.6,10.4-99.1,31.1-136.8c20.7-37.6,47.5-66.5,80.3-86.5c32.8-20.1,67.7-30.1,104.7-30.1c26.8,0,52.9,4.3,78.4,12.9
				s48.3,22,68.4,40.2s36.3,40.8,48.8,67.9c12.4,27.1,19.3,59.5,20.6,97.1c0,5.1-1.9,9.7-5.7,13.9c-3.8,4.2-8.3,6.2-13.4,6.2h-390.2
				l-5.7-36.3h385.4l-9.6,8.6v-17.2c-3.2-33.8-13.9-62.2-32-85.1c-18.2-23-40-40.3-65.5-52.1c-25.5-11.8-52-17.7-79.4-17.7
				c-19.1,0-39.2,4.3-60.2,12.9s-40.5,21.7-58.3,39.2c-17.9,17.5-32.4,39.7-43.5,66.5c-11.2,26.8-16.7,58-16.7,93.7
				c0,38.9,7.8,74.6,23.4,107.1s38.9,58.7,69.8,78.4c30.9,19.8,69,29.6,114.3,29.6c21.7,0,42.1-3.7,61.2-11s36.3-17,51.6-29.2
				c15.3-12.1,27.7-25.2,37.3-39.2c5.1-5.7,10.5-8.6,16.3-8.6c4.5,0,8.3,1.8,11.5,5.3s4.8,7.5,4.8,12s-1.3,8.3-3.8,11.5
				c-19.8,25.5-45.1,47.8-76,66.9C6086.6,869.2,6052.3,878.8,6014.7,878.8z"/>
			<path d="M4786.8,1374.8c5.1,0,9.7,1.4,13.9,4.3c4.1,2.9,6.2,7.5,6.2,13.9c0,0.6-0.2,2.1-0.5,4.3c-0.3,2.2-0.8,4-1.4,5.3
				l-148.2,454.3c-1.9,3.8-4.5,6.9-7.7,9.1s-6.7,3.3-10.5,3.3c-7.7,0-13.7-4.1-18.2-12.4L4473.1,1525l14.3,4.8l-130.1,327.1
				c-3.2,8.3-9.3,12.4-18.2,12.4c-3.8,0-7.5-1.1-11-3.3c-3.5-2.2-5.9-5.3-7.2-9.1l-153-454.3c-1.3-3.8-1.9-7-1.9-9.6
				c0-5.7,1.9-10.2,5.7-13.4c3.8-3.2,8.6-4.8,14.3-4.8c3.8,0,7.3,1.1,10.5,3.3c3.2,2.2,5.4,5.3,6.7,9.1l142.5,439h-16.3l135.8-336.6
				c3.2-8.3,9.2-12.4,18.2-12.4c3.8,0,7.5,1.1,11,3.3c3.5,2.2,5.9,5.3,7.2,9.1l146.3,337.6H4629l140.6-439.9
				C4772.8,1379,4778.5,1374.8,4786.8,1374.8z"/>
			<path d="M5360.6,1628.2c0,47.2-10.2,89.7-30.6,127.7c-20.4,37.9-48.3,67.9-83.7,89.9c-35.4,22-75.7,33-121,33
				c-44.6,0-84.8-11-120.5-33s-63.9-52-84.6-89.9s-31.1-80.5-31.1-127.7c0-47.8,10.4-90.7,31.1-128.6s48.9-67.9,84.6-89.9
				s75.9-33,120.5-33c45.3,0,85.6,11,121,33s63.3,52,83.7,89.9C5350.4,1537.6,5360.6,1580.4,5360.6,1628.2z M5322.3,1628.2
				c0-41.4-8.5-78.3-25.3-110.5c-16.9-32.2-40.2-57.7-69.8-76.5c-29.6-18.8-63.6-28.2-101.8-28.2c-37.6,0-71.4,9.4-101.4,28.2
				c-30,18.8-53.6,44.3-70.8,76.5c-17.2,32.2-25.8,69-25.8,110.5c0,40.8,8.6,77.3,25.8,109.5c17.2,32.2,40.8,57.7,70.8,76.5
				s63.7,28.2,101.4,28.2c38.3,0,72.2-9.4,101.8-28.2c29.6-18.8,52.9-44.3,69.8-76.5C5313.9,1705.6,5322.3,1669,5322.3,1628.2z"/>
			<path d="M5528.9,1850.1c0,5.1-1.9,9.6-5.7,13.4s-8.3,5.7-13.4,5.7c-5.7,0-10.4-1.9-13.9-5.7c-3.5-3.8-5.3-8.3-5.3-13.4v-669.4
				c0-5.1,1.9-9.6,5.7-13.4c3.8-3.8,8.3-5.7,13.4-5.7c5.7,0,10.4,1.9,13.9,5.7c3.5,3.8,5.3,8.3,5.3,13.4V1850.1z"/>
			<path d="M5885.6,1397.8c5.1,0,9.4,1.8,12.9,5.3s5.3,7.8,5.3,12.9s-1.8,9.4-5.3,12.9s-7.8,5.3-12.9,5.3H5658
				c-4.5,0-8.6-1.9-12.4-5.7s-5.7-8-5.7-12.4c0-5.7,1.9-10.2,5.7-13.4c3.8-3.2,8-4.8,12.4-4.8h227.6V1397.8z M5841.6,1166.3
				c7.7,0,16.7,0.6,27.3,1.9c10.5,1.3,19.8,3.8,27.7,7.7c8,3.8,12,9.6,12,17.2c0,4.5-1.8,8.8-5.3,12.9c-3.5,4.2-7.8,6.2-12.9,6.2
				c-6.4,0-14-1.9-23-5.7c-8.9-3.8-18.8-5.7-29.6-5.7c-12.8,0-24.1,2.9-34,8.6s-17.5,14.5-23,26.3c-5.4,11.8-8.1,26.9-8.1,45.4v569
				c0,5.1-1.9,9.6-5.7,13.4s-8.3,5.7-13.4,5.7c-5.7,0-10.4-1.9-13.9-5.7c-3.5-3.8-5.3-8.3-5.3-13.4v-569c0-39.5,10.5-68.5,31.6-87
				C5787.1,1175.6,5812.3,1166.3,5841.6,1166.3z M6203.1,1397.8c5.1,0,9.4,1.8,12.9,5.3s5.3,7.8,5.3,12.9s-1.8,9.4-5.3,12.9
				s-7.8,5.3-12.9,5.3h-227.6c-4.5,0-8.6-1.9-12.4-5.7s-5.7-8-5.7-12.4c0-5.7,1.9-10.2,5.7-13.4c3.8-3.2,8-4.8,12.4-4.8h227.6
				V1397.8z M6159.1,1166.3c7.7,0,16.7,0.6,27.3,1.9c10.5,1.3,19.8,3.8,27.7,7.7c8,3.8,12,9.6,12,17.2c0,4.5-1.8,8.8-5.3,12.9
				c-3.5,4.2-7.8,6.2-12.9,6.2c-6.4,0-14-1.9-23-5.7c-8.9-3.8-18.8-5.7-29.6-5.7c-12.8,0-24.1,2.9-34,8.6s-17.5,14.5-23,26.3
				c-5.4,11.8-8.1,26.9-8.1,45.4v569c0,5.1-1.9,9.6-5.7,13.4s-8.3,5.7-13.4,5.7c-5.7,0-10.4-1.9-13.9-5.7c-3.5-3.8-5.3-8.3-5.3-13.4
				v-569c0-39.5,10.5-68.5,31.6-87C6104.6,1175.6,6129.8,1166.3,6159.1,1166.3z"/>
		</g>
	</g>
	<g>
		<g>
			<path class="st0" d="M709.2,1989.5c-162.7,0-325.3,0-487.9,0c0-189.6,0-379.1,0-568.6c162.7,0,325.3,0,487.9,0
				C709.2,1610.5,709.2,1800,709.2,1989.5z M500.6,1774.9c-10.9,14.2-20.5,28-31.4,40.6c-15.9,18.4-32.2,36.5-49.2,53.8
				c-15,15.3-30.7,30.1-47.3,43.6c-14.4,11.7-19.4,25.9-17.2,43.4c0.9,7.2,4.6,9.3,11.4,7.5c15.8-4,28.7-13.1,39.8-24.4
				c16.4-16.6,32.4-33.6,48-51c8.7-9.8,16.1-20.8,24-31.2c8.7-11.5,17.9-22.7,25.7-34.7c4-6.2,9.1-5.6,14.1-4.6
				c1.6,0.3,2.6,5.4,3.3,8.5c0.5,2.3,0.6,4.9,0.1,7.2c-3.4,19.6-6.9,39.1-10.6,58.6c-2.1,11.3-6.1,22.7-1.9,34.1
				c3.9,10.6,6.7,22.4,13.5,31c12.4,15.6,31.3,22.6,50.3,25.7c19.5,3.2,39.6,3.6,59.4,4.1c19.1,0.5,38.2-0.5,56.7-6
				c8.3-2.4,13.3-7.9,14.8-16.1c1.5-8.3-1.4-16-5.2-23.3c-7.7-14.9-15.8-29.5-23.6-44.3c-5.7-10.8-11.2-21.6-16.9-32.4
				c-0.7-1.4-2-2.5-3.1-3.7c-1,1.5-2,3-2.8,4.3c-1.4-1-3.1-2.3-5.1-3.8c0,24.4,0,48.5,0,72.5c-6.3,0.4-11.8,0.9-17.2,1.1
				c-23.5,0.6-47.1,1.1-70.6,1.7c-4.8,0.1-8-2.4-9.2-6.5c-1.5-5-3.1-10.3-2.7-15.4c0.9-12.1,3.5-24,4.5-36.1
				c1.2-14.4,5.3-28.5,3.8-43.2c-1.1-10.9-3.9-20.8-12.7-27.8c-5.6-4.5-11.8-8.1-18.8-12.7c2.3-2,4.6-4.5,7.3-6.5
				c8.1-6.1,16.3-12.1,24.4-18.2c2.2-1.6,4.1-3.8,6.5-4.9c7.3-3.4,10.4-13.5,5.7-20.2c-8-11.2-19.1-16.5-32.6-17.3
				c-9.1-0.5-17.6,1.3-26,4.9c-9.2,4-14.4,1.9-20.2-6.2c-4.2-5.9-3.5-12.2-3.2-18.7c0.2-4.3,2.1-5.9,6.4-7.3
				c17-5.8,35.7-4.6,52.1-13.1c7.8-4.1,9.8-10.1,3-16c-11.9-10.3-25.9-14.7-41.7-11.7c-4,0.8-8,1.5-10.2,1.8
				c-2.1-7.5-2.8-14.1-5.7-19.6c-3-5.7-8-10.4-12.8-16.3c47.4-12.6,95.1-18.1,144.4-17.9c-18,29.2-44.7,46.5-72.4,64.3
				c2.7,0.2,4.8,0.5,6.9,0.4c10.2-0.4,20.4-0.9,30.6-1.2c4.2-0.1,8.6,1.3,12.4,0.2c12.8-3.7,25.2-8.4,37.9-12.2
				c11-3.3,19.9-9.8,27.9-17.5c3.3-3.1,4.8-8,7.5-11.8c6.4-8.9,7.3-14.9,1.1-23.4c-5.6-7.6-11.6-15.3-18.8-21.2
				c-15.6-12.8-32.3-24-54.4-19.9c-2.8,0.5-5.6,0.9-8.4,1.3c-26.3,3.6-52.7,7.3-79,10.7c-7,0.9-14.2,1.2-21.3,1.8
				c4.3-10.5,8.2-20.2,12.4-30.3c2.7,1.4,5,2.9,7.4,3.6c5.2,1.5,10.5,3.9,15.7,3.6c9.7-0.5,19.3-2.6,28.9-4.1
				c15.2-2.4,30.3-5.1,45.6-7.2c12.9-1.8,19.9-13.8,12.9-25c-4.3-6.9-10-13.3-16.4-18.3c-6.4-5.1-14.1-8.4-23.2-5.9
				c-13.7,3.7-27.6,6.6-41.3,9.9c-7.9,2-15.7,4.3-24.6,6.7c1.3-9.5,2.5-17.7,3.4-25.9c0.8-6.5,3-13.6,1.4-19.6
				c-6.1-22.9-23.4-35.4-44.4-43.6c-2.2-0.9-5.2,0.4-8.2,0.7c2.3,7.5,5.4,13.7,6.1,20.1c3.4,31,3.7,62-1.4,92.8
				c-2.7,16-7.8,31.2-19,43.4c-4.1,4.5-8.9,9.6-14.4,11.5c-12,4.1-24.6,7.4-37.2,9.1c-29.6,4-57.5,13.6-85.6,23
				c-4.3,1.4-8,4.8-12,7.3c0.1,0.7,0.3,1.4,0.4,2c4.2,1.9,8.2,4.1,12.5,5.5c16.8,5.6,25.6,12.4,24,32.7c-1.5,18-3.6,35.9-6.6,53.7
				c-4.3,25.7-12.9,50.1-21.5,74.7c-8.9,25.5-23.4,47.1-40.3,67.5c-5.6,6.7-12.2,12.4-18.6,18.4c-1.4,1.3-3.7,1.8-6,2.9
				c0-2.5,0-4.1,0-6.9c-3.1,8.7-11.6,12.2-13.1,20.3c-0.1,0.4-1,0.7-1.4,1.1c-5.5,5.9-3.4,13.9,4.2,16.1c8.7,2.5,16.5-0.8,23.9-4.6
				c14.5-7.4,27.9-16.4,39.8-27.8c14.2-13.6,28.2-27.3,38-44.5c8.3-14.6,16.5-29.4,22.9-44.9c6.7-16.3,11.6-33.4,16.6-50.4
				c2.9-10,4.5-20.4,6.5-30.7c0.7-3.7,2.9-4.6,6.1-4.2c6.6,0.8,13.4,1.2,19.9,2.3c9,1.6,17.9,3,27.1,0.6c4.9-1.3,10.2-1.2,15.1-1.7
				c1.9,8.2,3.6,16.3,5.7,24.3c4.7,17.9,17.6,34.3,39.2,36.2C494.5,1774.5,496.9,1774.6,500.6,1774.9z"/>
			<path d="M500.6,1774.9c-3.7-0.3-6.1-0.4-8.5-0.6c-21.7-2-34.6-18.4-39.2-36.2c-2.1-8-3.8-16.1-5.7-24.3
				c-4.9,0.5-10.2,0.4-15.1,1.7c-9.2,2.3-18.1,1-27.1-0.6c-6.6-1.2-13.3-1.6-19.9-2.3c-3.2-0.4-5.4,0.5-6.1,4.2
				c-2,10.3-3.6,20.7-6.5,30.7c-5,17-9.8,34.1-16.6,50.4c-6.4,15.5-14.6,30.3-22.9,44.9c-9.7,17.2-23.8,30.9-38,44.5
				c-11.8,11.4-25.3,20.3-39.8,27.8c-7.4,3.8-15.1,7.1-23.9,4.6c-7.6-2.2-9.7-10.2-4.2-16.1c0.4-0.4,1.3-0.7,1.4-1.1
				c1.6-8.2,10-11.7,13.1-20.3c0,2.9,0,4.4,0,6.9c2.3-1.1,4.6-1.5,6-2.9c6.4-6,13-11.7,18.6-18.4c17-20.3,31.4-42,40.3-67.5
				c8.6-24.5,17.2-49,21.5-74.7c3-17.8,5.1-35.7,6.6-53.7c1.6-20.3-7.1-27.1-24-32.7c-4.3-1.4-8.3-3.7-12.5-5.5
				c-0.1-0.7-0.3-1.4-0.4-2c4-2.5,7.6-5.9,12-7.3c28.1-9.3,56-19,85.6-23c12.6-1.7,25.1-5,37.2-9.1c5.5-1.9,10.3-6.9,14.4-11.5
				c11.2-12.2,16.3-27.3,19-43.4c5.1-30.9,4.9-61.8,1.4-92.8c-0.7-6.5-3.8-12.7-6.1-20.1c3-0.3,6-1.5,8.2-0.7
				c21,8.2,38.3,20.7,44.4,43.6c1.6,6-0.7,13-1.4,19.6c-0.9,8.2-2.1,16.4-3.4,25.9c8.8-2.4,16.7-4.7,24.6-6.7
				c13.8-3.4,27.6-6.2,41.3-9.9c9.1-2.5,16.8,0.8,23.2,5.9c6.4,5,12.1,11.4,16.4,18.3c7,11.1,0,23.2-12.9,25
				c-15.2,2.1-30.4,4.8-45.6,7.2c-9.6,1.5-19.2,3.6-28.9,4.1c-5.2,0.3-10.5-2.1-15.7-3.6c-2.4-0.7-4.7-2.2-7.4-3.6
				c-4.2,10.2-8.1,19.8-12.4,30.3c7.1-0.6,14.3-0.8,21.3-1.8c26.4-3.5,52.7-7.1,79-10.7c2.8-0.4,5.6-0.8,8.4-1.3
				c22-4.1,38.7,7.1,54.4,19.9c7.2,5.9,13.2,13.6,18.8,21.2c6.2,8.4,5.3,14.5-1.1,23.4c-2.7,3.8-4.2,8.7-7.5,11.8
				c-8.1,7.6-16.9,14.1-27.9,17.5c-12.7,3.8-25.1,8.6-37.9,12.2c-3.8,1.1-8.3-0.4-12.4-0.2c-10.2,0.3-20.4,0.8-30.6,1.2
				c-2.1,0.1-4.2-0.2-6.9-0.4c27.7-17.8,54.4-35.1,72.4-64.3c-49.3-0.1-97,5.4-144.4,17.9c4.8,5.9,9.8,10.6,12.8,16.3
				c2.9,5.5,3.6,12.1,5.7,19.6c2.1-0.4,6.2-1.1,10.2-1.8c15.8-3,29.8,1.4,41.7,11.7c6.8,5.9,4.8,11.9-3,16
				c-16.4,8.5-35.1,7.3-52.1,13.1c-4.2,1.4-6.1,3-6.4,7.3c-0.3,6.5-1,12.9,3.2,18.7c5.8,8.1,10.9,10.2,20.2,6.2
				c8.4-3.6,16.9-5.4,26-4.9c13.5,0.8,24.6,6.1,32.6,17.3c4.7,6.6,1.6,16.8-5.7,20.2c-2.4,1.1-4.4,3.3-6.5,4.9
				c-8.1,6.1-16.3,12-24.4,18.2c-2.6,2-5,4.4-7.3,6.5c7,4.7,13.3,8.3,18.8,12.7c8.8,7,11.6,16.9,12.7,27.8
				c1.5,14.7-2.6,28.8-3.8,43.2c-1,12.1-3.6,24-4.5,36.1c-0.4,5,1.2,10.4,2.7,15.4c1.2,4.1,4.5,6.6,9.2,6.5
				c23.5-0.6,47.1-1,70.6-1.7c5.4-0.1,10.9-0.7,17.2-1.1c0-24,0-48,0-72.5c2,1.5,3.7,2.8,5.1,3.8c0.9-1.3,1.9-2.8,2.8-4.3
				c1,1.2,2.3,2.3,3.1,3.7c5.7,10.8,11.2,21.6,16.9,32.4c7.8,14.8,15.9,29.5,23.6,44.3c3.8,7.2,6.7,15,5.2,23.3
				c-1.5,8.2-6.5,13.6-14.8,16.1c-18.6,5.5-37.7,6.4-56.7,6c-19.9-0.5-39.9-0.9-59.4-4.1c-19-3.1-37.8-10.1-50.3-25.7
				c-6.8-8.5-9.6-20.4-13.5-31c-4.2-11.5-0.3-22.8,1.9-34.1c3.7-19.5,7.2-39.1,10.6-58.6c0.4-2.3,0.4-4.9-0.1-7.2
				c-0.7-3-1.7-8.1-3.3-8.5c-5-1-10.1-1.6-14.1,4.6c-7.8,12.1-17,23.2-25.7,34.7c-7.9,10.5-15.3,21.5-24,31.2
				c-15.5,17.4-31.6,34.4-48,51c-11.2,11.3-24,20.4-39.8,24.4c-6.8,1.7-10.6-0.4-11.4-7.5c-2.1-17.5,2.8-31.7,17.2-43.4
				c16.6-13.5,32.3-28.3,47.3-43.6c17-17.3,33.4-35.4,49.2-53.8C480.1,1802.9,489.6,1789.1,500.6,1774.9z M378.8,1700.8
				c23.9-7.8,46.2-15.2,68.6-22.3c3.1-1,4.8-2.3,4.8-5.8c0-12,0.2-23.9,0.5-35.9c0.1-5.3-2.5-6.7-7.3-5.7
				c-23.1,5.1-46.3,10.1-69.4,15.3c-5.3,1.2-10.3,3.1-16.7,5C372.3,1666,381.8,1681.2,378.8,1700.8z"/>
			<path class="st0" d="M378.8,1700.8c3-19.6-6.5-34.8-19.5-49.3c6.3-1.9,11.4-3.8,16.7-5c23.1-5.2,46.3-10.2,69.4-15.3
				c4.8-1.1,7.4,0.3,7.3,5.7c-0.3,12-0.5,23.9-0.5,35.9c0,3.5-1.7,4.8-4.8,5.8C425.1,1685.7,402.8,1693,378.8,1700.8z"/>
		</g>
	</g>
</g>
</svg>
