<?xml version="1.0" encoding="utf-8"?>
<!-- Generator: Adobe Illustrator 24.0.0, SVG Export Plug-In . SVG Version: 6.00 Build 0)  -->
<svg version="1.1" xmlns="http://www.w3.org/2000/svg" xmlns:xlink="http://www.w3.org/1999/xlink" x="0px" y="0px"
	 viewBox="0 0 6464 2144" style="enable-background:new 0 0 6464 2144;" xml:space="preserve">
<style type="text/css">
	.st0{fill:none;}
	.st1{fill:#FFFFFF;}
</style>
<g id="Layer_2">
</g>
<g id="svg64" inkscape:version="0.92.3 (2405546, 2018-03-11)" sodipodi:docname="logo.svg" xmlns:cc="http://creativecommons.org/ns#" xmlns:dc="http://purl.org/dc/elements/1.1/" xmlns:inkscape="http://www.inkscape.org/namespaces/inkscape" xmlns:rdf="http://www.w3.org/1999/02/22-rdf-syntax-ns#" xmlns:sodipodi="http://sodipodi.sourceforge.net/DTD/sodipodi-0.dtd" xmlns:svg="http://www.w3.org/2000/svg">
	
		<sodipodi:namedview  bordercolor="#666666" borderopacity="1" gridtolerance="10" guidetolerance="10" id="namedview66" inkscape:current-layer="g62" inkscape:cx="2178.2854" inkscape:cy="2370.7868" inkscape:pageopacity="0" inkscape:pageshadow="2" inkscape:window-height="1027" inkscape:window-maximized="1" inkscape:window-width="1920" inkscape:window-x="1912" inkscape:window-y="-8" inkscape:zoom="0.093201574" objecttolerance="10" pagecolor="#ffffff" showgrid="false">
		</sodipodi:namedview>
	<g>
		<g id="g4633">
			<path id="path4" inkscape:connector-curvature="0" d="M8370.1,32917v-4375h900h900l2,3397l3,3398l769-3335
				c423-1834,775-3363,783-3398l15-62l900,2l901,3l771,3395l771,3394l3-3397l2-3397h900h900v4375v4375h-1355h-1354l-9-32
				c-5-18-350-1582-768-3476c-462-2097-762-3435-766-3425c-7,16-1578,6915-1578,6928c0,3-605,5-1345,5h-1345V32917z"/>
			<path id="path6" inkscape:connector-curvature="0" d="M18690.1,36542v-750h840h840v750v750h-840h-840V36542z"/>
			<path id="path8" inkscape:connector-curvature="0" d="M29390.1,36542v-750h840h840v750v750h-840h-840V36542z"/>
			<path id="path10" inkscape:connector-curvature="0" d="M50210.1,32917v-4375h840h840v4375v4375h-840h-840V32917z"/>
			<path id="path12" inkscape:connector-curvature="0" d="M53510.1,36542v-750h840h840v750v750h-840h-840V36542z"/>
			<path id="path14" inkscape:connector-curvature="0" d="M63780.1,35762v-870h-415h-415v-560v-560h415h415v-2047
				c0-1355,4-2087,11-2163c26-284,103-528,226-713c99-149,281-310,446-394c283-143,681-206,1163-183c115,6,270,19,344,30
				c128,19,343,66,403,89l27,11v585c0,461-3,585-12,585c-7,0-60-7-118-15c-137-19-394-19-481-1c-173,37-257,127-302,320
				c-21,90-21,103-24,1993l-4,1903l468,2l468,3v555v555l-467,3l-468,2v870v870h-840h-840L63780.1,35762z"/>
			<path id="path16" inkscape:connector-curvature="0" d="M25440.1,35126c-777-54-1270-336-1738-993l-32-45v467v467h-840h-840v-3240
				v-3240h840h840l3,2043l3,2042l21,93c74,319,216,546,451,720c383,284,1034,348,1447,143c314-156,472-443,505-916
				c6-94,10-895,10-2137v-1988h840h841l-4,2298c-3,1686-7,2322-16,2392c-72,584-244,988-555,1309c-312,321-732,511-1256,570
				C25857.1,35123,25529.1,35132,25440.1,35126z"/>
			<path id="path18" inkscape:connector-curvature="0" d="M35960.1,35126c-478-41-795-164-1140-441c-98-79-284-261-388-381l-72-82
				v400v400h-835h-835v-3240v-3240h840h840l3,2058c3,1892,4,2064,20,2142c84,415,261,677,565,833c250,129,585,162,879,86
				c279-71,479-263,565-541l23-73l3-2252l2-2253h840h839l4,2038c2,1593,6,2053,16,2112c59,348,196,611,400,773
				c138,108,288,176,479,214c124,25,397,25,507-1c197-45,316-107,435-226c129-128,194-269,220-474c6-52,10-853,10-2258v-2178h840
				h840v2329c0,1487-4,2375-10,2457c-42,529-209,934-512,1243c-292,296-666,467-1178,537c-153,21-546,24-695,5
				c-610-76-1058-325-1461-811l-107-130l-46,80c-69,121-126,194-236,309c-291,301-672,483-1145,546
				C36364.1,35122,36044.1,35133,35960.1,35126z"/>
			<path id="path20" inkscape:connector-curvature="0" d="M45715.1,35121c-670-38-1230-211-1617-501c-119-89-288-257-374-370
				c-229-304-368-664-433-1123c-11-77-21-162-23-190l-2-50h808h809l17,100c45,266,117,422,251,549c120,113,269,175,511,213
				c159,25,610,25,750,0c352-62,555-215,613-459c20-84,19-244-1-322c-46-177-174-311-387-402c-159-69-345-111-717-165
				c-245-35-938-157-1110-195c-1051-232-1597-803-1680-1754c-107-1226,624-2110,1802-2179c585-35,1137,131,1633,489
				c131,95,300,238,400,339c44,45,82,81,86,81c3,0,9-62,12-137c8-199,47-319,150-458l32-44l913-1h912v103v103l-76,74
				c-145,144-227,271-276,430l-23,75l-5,2025c-7,2201-3,2076-61,2323c-133,568-499,979-1081,1213
				C47083.1,35075,46413.1,35160,45715.1,35121z M47030.1,30887c-48-473-226-828-521-1038c-203-144-497-228-796-227
				c-199,1-354,34-512,112c-91,43-116,62-191,137c-96,97-155,199-187,326c-26,104-23,353,5,456c65,240,231,407,516,518
				c151,59,329,102,746,181c628,119,749,149,887,219l58,29l3-302C47040.1,31125,47036.1,30950,47030.1,30887z"/>
			<path id="path22" inkscape:connector-curvature="0" d="M59000.1,35121c-677-42-1236-234-1659-568c-109-86-281-266-363-382
				c-83-116-205-358-252-499c-133-405-142-903-24-1265c126-387,405-676,829-859c156-67,158-68,1424-461c1073-333,1214-378,1322-426
				c211-94,310-217,321-398c6-105-8-172-52-256c-105-200-376-337-786-396c-213-30-652-27-860,7c-284,45-480,132-620,274
				c-104,107-175,247-223,441l-22,89h-824h-824l7-82c26-315,92-586,199-808c341-710,1068-1117,2202-1235c336-34,878-37,1180-5
				c850,89,1487,392,1878,892c367,470,513,1132,380,1728c-65,293-183,512-387,715c-178,177-424,326-696,420c-58,20-603,180-1211,356
				c-609,175-1147,333-1195,350c-113,39-257,107-311,147c-154,114-179,375-55,568c176,273,667,398,1245,318c497-69,774-292,841-679
				c9-50,16-109,16-132v-43h810h810v54c0,90-20,254-46,386c-61,306-202,614-383,840c-436,545-1157,855-2115,910
				C59358.1,35133,59188.1,35133,59000.1,35121z"/>
			<path id="path24" inkscape:connector-curvature="0" d="M18690.1,31782v-3240h840h840v3240v3240h-840h-840V31782z"/>
			<path id="path26" inkscape:connector-curvature="0" d="M29390.1,31782v-3240h840h840v3240v3240h-840h-840V31782z"/>
			<path id="path28" inkscape:connector-curvature="0" d="M53510.1,31782v-3240h840h840v3240v3240h-840h-840V31782z"/>
			<path id="path30" inkscape:connector-curvature="0" d="M46220.1,25002v-260h150h150v260v260h-150h-150V25002z"/>
			<path id="path32" inkscape:connector-curvature="0" d="M31554.1,25148c-55-24-70-119-25-160c25-23,115-36,254-36h117v-582
				c0-320-4-578-8-573c-4,6-34,43-67,83c-154,193-349,325-566,384c-75,20-105,23-274,22c-176,0-196-2-276-27c-119-36-185-67-283-130
				c-262-171-447-454-496-759c-19-117-8-371,20-478c75-284,269-540,525-692c281-168,679-182,970-35c139,69,305,212,403,345l47,64
				l3-216l2-216h261c276,0,315,6,338,48c6,12,11,36,11,56c0,86-27,98-237,104l-163,5v1403v1404h-262
				C31651.1,25161,31577.1,25158,31554.1,25148z M31245.1,24063c323-85,572-354,640-690c22-105,16-353-10-446
				c-40-148-155-331-271-434c-174-155-352-221-597-221c-257,0-451,83-633,271c-117,121-191,255-231,416c-25,101-24,343,1,443
				c90,350,358,609,701,676C30944.1,24097,31142.1,24090,31245.1,24063z"/>
			<path id="path34" inkscape:connector-curvature="0" d="M35764.1,25148c-55-24-70-119-25-160c25-23,115-36,254-36h117v-1300v-1300
				l-122-1c-174-1-226-10-255-43c-41-48-25-123,32-151c27-12,79-15,294-15h261l2,215l3,215l52-68c66-87,210-226,286-276
				c297-195,701-219,1020-60c266,133,485,392,571,674c36,121,46,196,46,353c0,317-97,559-310,777c-108,110-183,164-314,226
				c-156,73-231,88-446,89c-205,0-256-9-402-70c-156-66-345-218-459-369l-44-59l-3,686l-2,687h-263
				C35861.1,25161,35787.1,25158,35764.1,25148z M37375.1,24077c267-47,496-223,625-480c76-151,93-227,93-420c1-184-16-262-82-400
				c-88-184-259-351-447-436c-215-98-527-93-735,11c-181,91-347,263-430,445c-54,121-73,215-73,380c-1,164,12,240,65,367
				c93,226,302,423,534,503C37054.1,24091,37225.1,24103,37375.1,24077z"/>
			<path id="path36" inkscape:connector-curvature="0" d="M50980.1,25151c-46-19-60-39-60-89c0-89,48-108,273-109l127-1v-1299v-1298
				l-162-5c-211-6-238-18-238-104c0-20,5-44,11-56c23-42,62-48,339-48h260v453v452l110,93c60,50,113,92,117,92s206-198,448-440
				l440-440l-55-1c-107-1-162-14-187-43c-41-48-25-123,32-151c47-22,757-23,810-1c40,17,55,42,55,90c0,83-28,97-221,105l-146,6
				l-511,505l-512,505l392,327l393,328h138c147,0,196,11,216,48c14,26,14,87,1,111c-22,43-56,46-445,46s-423-3-445-46
				c-13-23-13-85,0-109c17-32,51-44,140-50l84-5l-424-361l-425-361l-3,934l-2,933l-263-1C51119.1,25161,50994.1,25156,50980.1,25151
				z"/>
			<path id="path38" inkscape:connector-curvature="0" d="M57340.1,25151c-46-19-60-39-60-89c0-59,29-90,97-101c27-4,175-8,331-8
				l282-1v-1300v-1300l-387-1c-445-1-486-4-520-43c-41-48-25-123,33-151c29-14,139-15,999-13l967,3l29,33c36,40,39,90,7,127
				c-35,39-101,45-530,45h-388v1405v1405l-417-1C57532.1,25161,57355.1,25157,57340.1,25151z"/>
			<path id="path40" inkscape:connector-curvature="0" d="M60340.1,25151c-46-19-60-39-60-89c0-59,29-90,97-101c27-4,175-8,331-8
				l282-1v-1300v-1300l-387-1c-445-1-486-4-520-43c-41-48-25-123,33-151c29-14,139-15,999-13l967,3l29,33c36,40,39,90,7,127
				c-35,39-101,45-530,45h-388v1405v1405l-417-1C60532.1,25161,60355.1,25157,60340.1,25151z"/>
			<path id="path42" inkscape:connector-curvature="0" d="M12986.1,24277c-142-29-265-83-376-165c-64-48-195-177-258-255l-32-40v208
				v207l-227-1c-280-1-328-6-360-43c-41-48-25-123,32-151c26-11,69-15,189-15h156v-1300v-1300l-122-1c-174-1-226-10-255-43
				c-41-48-25-123,32-151c47-22,1067-23,1120-1c40,17,55,42,55,90c0,49-8,64-44,84c-26,14-71,17-303,20l-273,4v621l1,622l26-35
				c64-84,231-238,313-288c202-124,452-174,706-142c436,55,793,358,906,770c20,75,23,107,23,275s-3,200-23,275
				c-98,357-385,640-748,737c-87,23-122,26-284,29C13108.1,24290,13035.1,24287,12986.1,24277z M13455.1,24062c97-24,225-84,297-138
				c238-177,361-438,344-732c-12-215-87-380-243-535c-175-173-381-255-643-255c-254,0-448,74-621,237c-124,117-197,234-241,389
				c-30,104-32,323-4,424c57,211,210,406,412,524c71,41,217,92,302,106C13150.1,24097,13363.1,24086,13455.1,24062z"/>
			<path id="path44" inkscape:connector-curvature="0" d="M15899.1,24282c-362-65-672-299-831-625c-149-308-143-692,17-992
				c196-371,584-602,1010-603c320,0,606,119,831,346c280,281,377,664,273,1073c-24,96-113,276-178,362c-116,152-303,299-466,365
				c-156,64-221,76-425,80C16028.1,24289,15924.1,24287,15899.1,24282z M16342.1,24063c180-47,308-123,441-260
				c128-133,196-262,233-441c24-118,16-347-16-445c-45-142-106-241-219-359c-151-156-315-244-514-276c-99-16-332-8-417,15
				c-88,23-219,85-293,139c-91,64-218,202-271,292c-26,44-61,122-78,174c-32,93-32,98-32,280c0,176,1,189,28,270
				c108,329,399,576,741,630C16040.1,24096,16253.1,24086,16342.1,24063z"/>
			<path id="path46" inkscape:connector-curvature="0" d="M21822.1,24277c-422-77-768-383-874-775c-20-75-23-108-23-280
				c0-182,2-202,28-294c55-199,150-359,303-512c93-92,210-177,319-232c337-167,786-160,1247,19c231,90,358,186,358,269
				c0,51-49,100-99,100c-11,0-61-28-112-62c-152-99-313-165-516-209c-139-30-415-38-536-15c-309,58-561,244-692,511
				c-42,84-83,209-99,298l-7,37h1036c964,0,1036,1,1042,17c10,26-14,238-38,333c-105,417-436,720-867,795
				C22187.1,24296,21923.1,24295,21822.1,24277z M22230.1,24078c298-45,549-224,679-483c26-53,81-217,81-244c0-5-397-9-935-9
				c-514,0-935,2-935,4s11,43,26,92C21279.1,23898,21715.1,24155,22230.1,24078z"/>
			<path id="path48" inkscape:connector-curvature="0" d="M27822.1,24277c-422-77-768-383-874-775c-20-75-23-108-23-280
				c0-182,2-202,28-294c55-199,150-359,303-512c93-92,210-177,319-232c337-167,786-160,1247,19c231,90,358,186,358,269
				c0,51-49,100-99,100c-11,0-61-28-112-62c-152-99-313-165-516-209c-139-30-415-38-536-15c-309,58-561,244-692,511
				c-42,84-83,209-99,298l-7,37h1036c964,0,1036,1,1042,17c10,26-14,238-38,333c-105,417-436,720-867,795
				C28187.1,24296,27923.1,24295,27822.1,24277z M28230.1,24078c298-45,549-224,679-483c26-53,81-217,81-244c0-5-397-9-935-9
				c-514,0-935,2-935,4s11,43,26,92C27279.1,23898,27715.1,24155,28230.1,24078z"/>
			<path id="path50" inkscape:connector-curvature="0" d="M48822.1,24277c-422-77-768-383-874-775c-20-75-23-108-23-280
				c0-182,2-202,28-294c55-199,150-359,303-512c93-92,210-177,319-232c337-167,786-160,1247,19c231,90,358,186,358,269
				c0,51-49,100-99,100c-11,0-61-28-112-62c-152-99-313-165-516-209c-139-30-415-38-536-15c-309,58-561,244-692,511
				c-42,84-83,209-99,298l-7,37h1036c964,0,1036,1,1042,17c10,26-14,238-38,333c-105,417-436,720-867,795
				C49187.1,24296,48923.1,24295,48822.1,24277z M49230.1,24078c298-45,549-224,679-483c26-53,81-217,81-244c0-5-397-9-935-9
				c-514,0-935,2-935,4s11,43,26,92C48279.1,23898,48715.1,24155,49230.1,24078z"/>
			<path id="path52" inkscape:connector-curvature="0" d="M25630.1,24251c-99-25-253-103-368-186c-80-57-221-172-379-308l-43-37v257
				v257l-317-4c-277-3-322-5-349-20c-36-20-44-35-44-84c0-93,33-104,295-104h205v-835v-835l-227-1c-280-1-328-6-360-43
				c-41-48-25-123,32-151c29-13,135-15,869-15c918,0,890-2,915,59c16,37,7,92-18,115c-33,30-129,36-569,36h-432l2,552l3,552l110,100
				c497,452,713,566,936,496c47-15,95-43,179-105c104-77,118-85,150-81c69,10,101,87,65,155c-22,43-147,154-213,189
				c-32,17-85,38-117,47C25872.1,24278,25723.1,24276,25630.1,24251z"/>
			<path id="path54" inkscape:connector-curvature="0" d="M17846.1,24223c-80-12-117-75-85-145c17-37,67-56,148-56c65,0,71-2,76-22
				c3-13,95-426,205-918s202-905,205-917c5-22,9-23,133-23h127l220,640c121,352,222,640,225,640s107-288,230-640l225-640h125h125
				l204,928c113,510,206,933,209,940c3,8,27,12,74,12c110,0,158,33,158,111c0,20-10,40-28,59c-25,25-38,29-113,35c-47,4-202,5-344,3
				c-318-4-335-10-335-104c0-87,39-104,235-104c135,0,146-1,141-17c-2-10-80-367-171-793c-92-426-168-776-170-778c-1-2-9,16-18,40
				c-8,24-99,284-202,578s-196,561-207,593l-20,58l-127-3l-126-3l-67-200c-241-714-361-1065-364-1063c-4,4-354,1563-354,1577
				c0,7,49,11,150,11c202,0,240,16,240,104c0,49-8,64-44,84c-27,15-69,17-331,18C18030.1,24229,17873.1,24227,17846.1,24223z"/>
			<path id="path56" inkscape:connector-curvature="0" d="M38970.1,24225c-86-13-110-34-110-94c0-22,5-49,11-61c16-29,70-48,139-48
				h60l470-940l470-940l-176-359l-176-359l-347-4c-304-3-350-5-377-20c-17-10-34-25-38-33c-10-26-7-84,5-107c25-47,37-48,705-48
				c544,0,630,2,659,15c72,35,74,138,2,177c-13,7-96,14-212,17l-190,6l636,1295l636,1295l69,6c104,8,134,31,134,104
				c0,96-16,100-405,100s-405-4-405-100c0-87,25-99,231-105l167-5l-402-824l-401-825l-407,820c-224,450-407,822-407,827
				c-1,4,67,7,150,7c166,0,207,10,228,56c33,72-5,133-90,145C39545.1,24231,39017.1,24233,38970.1,24225z"/>
			<path id="path58" inkscape:connector-curvature="0" d="M45310.1,24225c-86-13-110-34-110-94c0-22,5-49,11-61c25-47,37-48,699-48
				h620l-2-1087l-3-1088l-28-69c-50-125-152-242-257-296c-106-54-107-54-555-60c-501-6-495-5-495-111c0-48,32-85,82-94
				c18-4,216-5,438-2c447,4,466,6,603,71c196,91,337,262,400,483l22,78l3,1193l3,1192l-703-1
				C45651.1,24230,45324.1,24228,45310.1,24225z"/>
			<path id="path60" inkscape:connector-curvature="0" d="M53970.1,24225c-86-13-110-34-110-94c0-22,5-49,11-61c16-29,70-48,139-48
				h60l470-940l470-940l-176-359l-176-359l-347-4c-304-3-350-5-377-20c-17-10-34-25-38-33c-10-26-7-84,5-107c25-47,37-48,705-48
				c544,0,630,2,659,15c72,35,74,138,2,177c-13,7-96,14-212,17l-190,6l636,1295l636,1295l69,6c104,8,134,31,134,104
				c0,96-16,100-405,100s-405-4-405-100c0-87,25-99,231-105l167-5l-402-824l-401-825l-407,820c-224,450-407,822-407,827
				c-1,4,67,7,150,7c166,0,207,10,228,56c33,72-5,133-90,145C54545.1,24231,54017.1,24233,53970.1,24225z"/>
		</g>
		<path class="st0" d=""/>
		<g id="flowRoot4596">
		</g>
		<g id="flowRoot4643">
		</g>
	</g>
	<g>
		<g>
			<path d="M415.5,376.7c28.7,0,55.5,5.1,80.3,15.3c24.9,10.2,46.7,23.6,65.5,40.2c18.8,16.6,33.5,34.4,44,53.6
				c10.5,19.1,15.8,37.9,15.8,56.4l-12.4-35.4v-95.6c0-5.1,1.7-9.6,5.3-13.4c3.5-3.8,8.1-5.7,13.9-5.7c5.7,0,10.4,1.9,13.9,5.7
				c3.5,3.8,5.3,8.3,5.3,13.4v411.2c0,49.1-10,91.5-30.1,127.2c-20.1,35.7-47.7,63.1-82.7,82.2c-35.1,19.1-75.9,28.7-122.4,28.7
				c-25.5,0-51.2-3.3-77-10c-25.8-6.7-47.3-15.2-64.6-25.3c-17.2-10.2-25.8-21-25.8-32.5c0-5.1,1.4-9.2,4.3-12.4
				c2.9-3.2,6.8-4.8,12-4.8c6.4,0,12.3,3.5,17.7,10.5c5.4,7,15.1,13.4,29.2,19.1c5.7,1.9,13.5,4.5,23.4,7.7
				c9.9,3.2,21.8,5.9,35.9,8.1c14,2.2,29.6,3.3,46.9,3.3c60.6,0,108.2-18.6,143-55.9c34.7-37.3,52.1-85.9,52.1-145.8v-94.7l9.6,1
				c-7.7,27.4-18.8,50.7-33.5,69.8c-14.7,19.1-31.4,34.6-50.2,46.4c-18.8,11.8-38.6,20.4-59.3,25.8c-20.7,5.4-40.6,8.1-59.8,8.1
				c-44,0-83.4-11-118.1-33c-34.8-22-62.3-52-82.7-89.9c-20.4-37.9-30.6-80.8-30.6-128.6c0-47.8,10.2-90.7,30.6-128.6
				c20.4-37.9,48-67.7,82.7-89.4C332.1,387.6,371.5,376.7,415.5,376.7z M417.4,413.1c-37,0-70.3,9.2-99.9,27.7
				c-29.6,18.5-52.9,43.8-69.8,76c-16.9,32.2-25.3,69-25.3,110.5c0,40.8,8.4,77.5,25.3,110c16.9,32.5,40.2,58.2,69.8,77
				c29.6,18.8,63,28.2,99.9,28.2c37,0,70.1-9.1,99.5-27.3c29.3-18.2,52.6-43.3,69.8-75.6c17.2-32.2,25.8-69.6,25.8-112.4
				c0-42.7-8.6-80.2-25.8-112.4c-17.2-32.2-40.5-57.2-69.8-75.1C487.5,422,454.4,413.1,417.4,413.1z"/>
			<path d="M1243.7,628.2c0,47.2-10.2,89.7-30.6,127.7c-20.4,37.9-48.3,67.9-83.7,89.9c-35.4,22-75.7,33-121,33
				c-44.6,0-84.8-11-120.5-33c-35.7-22-63.9-52-84.6-89.9c-20.7-37.9-31.1-80.5-31.1-127.7c0-47.8,10.4-90.7,31.1-128.6
				c20.7-37.9,48.9-67.9,84.6-89.9c35.7-22,75.9-33,120.5-33c45.3,0,85.6,11,121,33c35.4,22,63.3,52,83.7,89.9
				C1233.5,537.6,1243.7,580.4,1243.7,628.2z M1205.4,628.2c0-41.4-8.5-78.3-25.3-110.5c-16.9-32.2-40.2-57.7-69.8-76.5
				c-29.6-18.8-63.6-28.2-101.8-28.2c-37.6,0-71.4,9.4-101.4,28.2c-30,18.8-53.6,44.3-70.8,76.5c-17.2,32.2-25.8,69-25.8,110.5
				c0,40.8,8.6,77.3,25.8,109.5c17.2,32.2,40.8,57.7,70.8,76.5c30,18.8,63.7,28.2,101.4,28.2c38.3,0,72.2-9.4,101.8-28.2
				c29.6-18.8,52.9-44.3,69.8-76.5C1196.9,705.6,1205.4,669,1205.4,628.2z"/>
			<path d="M1586,376.7c40.2,0,72.8,8,98,23.9c25.2,15.9,43.7,37.6,55.5,65c11.8,27.4,17.7,58,17.7,91.8v292.6
				c0,5.1-1.9,9.6-5.7,13.4c-3.8,3.8-8.3,5.7-13.4,5.7c-5.7,0-10.4-1.9-13.9-5.7c-3.5-3.8-5.3-8.3-5.3-13.4V561.3
				c0-27.4-4.6-52.3-13.9-74.6c-9.2-22.3-23.9-40.2-44-53.6s-46.4-20.1-78.9-20.1c-28.1,0-55.5,6.7-82.2,20.1s-48.9,31.2-66.5,53.6
				c-17.5,22.3-26.3,47.2-26.3,74.6v288.8c0,5.1-1.9,9.6-5.7,13.4c-3.8,3.8-8.3,5.7-13.4,5.7c-5.7,0-10.4-1.9-13.9-5.7
				c-3.5-3.8-5.3-8.3-5.3-13.4v-439c0-5.1,1.9-9.6,5.7-13.4c3.8-3.8,8.3-5.7,13.4-5.7c5.7,0,10.4,1.9,13.9,5.7
				c3.5,3.8,5.3,8.3,5.3,13.4v93.7l-23.9,45.9c0-23,6.1-44.9,18.2-66c12.1-21,28-39.7,47.8-55.9c19.8-16.3,41.6-29,65.5-38.3
				C1538.7,381.4,1562.4,376.7,1586,376.7z"/>
			<path d="M2216.2,832.9c5.1,0,9.6,1.9,13.4,5.7c3.8,3.8,5.7,8,5.7,12.4c0,5.1-1.9,9.4-5.7,12.9c-3.8,3.5-8.3,5.3-13.4,5.3h-311.8
				c-6.4,0-11.3-2.4-14.8-7.2c-3.5-4.8-5.3-8.8-5.3-12c0-2.5,0.5-4.8,1.4-6.7c1-1.9,2.1-3.8,3.3-5.7l307.9-432.3l4.8,7.7h-268.7
				c-5.1,0-9.6-1.9-13.4-5.7c-3.8-3.8-5.7-8-5.7-12.4c0-5.1,1.9-9.4,5.7-12.9c3.8-3.5,8.3-5.3,13.4-5.3h292.6
				c5.1,0,9.4,1.9,12.9,5.7c3.5,3.8,5.6,8.3,6.2,13.4c0,2.6-0.5,4.9-1.4,7.2c-1,2.2-2.1,4.3-3.3,6.2l-306,428.4l-14.3-4.8H2216.2z"
				/>
			<path d="M2763.2,392c5.7,0,10.4,1.9,13.9,5.7c3.5,3.8,5.3,8.3,5.3,13.4v439c0,5.1-1.9,9.6-5.7,13.4c-3.8,3.8-8.3,5.7-13.4,5.7
				c-5.7,0-10.4-1.9-13.9-5.7c-3.5-3.8-5.3-8.3-5.3-13.4V714.3l15.3-12.4c0,20.4-5.1,41.1-15.3,62.2c-10.2,21-24.2,40.2-42.1,57.4
				c-17.9,17.2-38.9,31.1-63.1,41.6c-24.2,10.5-50.4,15.8-78.4,15.8c-42.7,0-80.8-11.1-114.3-33.5c-33.5-22.3-59.8-52.6-78.9-90.9
				c-19.1-38.3-28.7-81.3-28.7-129.1c0-48.4,9.7-91.3,29.2-128.6c19.4-37.3,45.9-66.6,79.4-88c33.5-21.4,71.2-32,113.3-32
				c27.4,0,53.2,4.9,77.5,14.8c24.2,9.9,45.4,23.8,63.6,41.6c18.2,17.9,32.4,38.7,42.6,62.6c10.2,23.9,15.3,49.9,15.3,77.9
				l-15.3-23.9V411.2c0-5.1,1.7-9.6,5.3-13.4C2752.9,393.9,2757.5,392,2763.2,392z M2562.4,842.5c35.7,0,67.6-9.4,95.6-28.2
				c28-18.8,50-44.6,66-77.5c15.9-32.8,23.9-70,23.9-111.4c0-39.5-8-75.4-23.9-107.6c-15.9-32.2-37.9-57.7-66-76.5
				c-28.1-18.8-59.9-28.2-95.6-28.2c-35.1,0-66.6,9.1-94.7,27.3c-28.1,18.2-50.2,43.2-66.5,75.1c-16.3,31.9-24.4,68.5-24.4,110
				c0,41.5,8,78.6,23.9,111.4c15.9,32.8,37.9,58.7,66,77.5C2494.8,833.1,2526.7,842.5,2562.4,842.5z"/>
			<path d="M2984.1,850.1c0,5.1-1.9,9.6-5.7,13.4c-3.8,3.8-8.3,5.7-13.4,5.7c-5.7,0-10.4-1.9-13.9-5.7c-3.5-3.8-5.3-8.3-5.3-13.4
				V180.7c0-5.1,1.9-9.6,5.7-13.4c3.8-3.8,8.3-5.7,13.4-5.7c5.7,0,10.4,1.9,13.9,5.7c3.5,3.8,5.3,8.3,5.3,13.4V850.1z"/>
			<path d="M3585.7,628.2c0,47.2-10.2,89.7-30.6,127.7c-20.4,37.9-48.3,67.9-83.7,89.9s-75.7,33-121,33c-44.6,0-84.8-11-120.5-33
				c-35.7-22-63.9-52-84.6-89.9c-20.7-37.9-31.1-80.5-31.1-127.7c0-47.8,10.4-90.7,31.1-128.6c20.7-37.9,48.9-67.9,84.6-89.9
				c35.7-22,75.9-33,120.5-33c45.3,0,85.6,11,121,33s63.3,52,83.7,89.9C3575.5,537.6,3585.7,580.4,3585.7,628.2z M3547.4,628.2
				c0-41.4-8.5-78.3-25.3-110.5c-16.9-32.2-40.2-57.7-69.8-76.5c-29.6-18.8-63.6-28.2-101.8-28.2c-37.6,0-71.4,9.4-101.4,28.2
				c-30,18.8-53.6,44.3-70.8,76.5c-17.2,32.2-25.8,69-25.8,110.5c0,40.8,8.6,77.3,25.8,109.5c17.2,32.2,40.8,57.7,70.8,76.5
				c30,18.8,63.7,28.2,101.4,28.2c38.3,0,72.2-9.4,101.8-28.2c29.6-18.8,52.9-44.3,69.8-76.5C3539,705.6,3547.4,669,3547.4,628.2z"
				/>
			<path d="M4407.1,628.2c0,47.2-10.2,89.7-30.6,127.7c-20.4,37.9-48.3,67.9-83.7,89.9c-35.4,22-75.7,33-121,33
				c-44.6,0-84.8-11-120.5-33c-35.7-22-63.9-52-84.6-89.9c-20.7-37.9-31.1-80.5-31.1-127.7c0-47.8,10.4-90.7,31.1-128.6
				c20.7-37.9,48.9-67.9,84.6-89.9c35.7-22,75.9-33,120.5-33c45.3,0,85.6,11,121,33c35.4,22,63.3,52,83.7,89.9
				C4396.9,537.6,4407.1,580.4,4407.1,628.2z M4368.9,628.2c0-41.4-8.5-78.3-25.3-110.5c-16.9-32.2-40.2-57.7-69.8-76.5
				c-29.6-18.8-63.6-28.2-101.8-28.2c-37.6,0-71.4,9.4-101.4,28.2c-30,18.8-53.6,44.3-70.8,76.5c-17.2,32.2-25.8,69-25.8,110.5
				c0,40.8,8.6,77.3,25.8,109.5c17.2,32.2,40.8,57.7,70.8,76.5c30,18.8,63.7,28.2,101.4,28.2c38.3,0,72.2-9.4,101.8-28.2
				c29.6-18.8,52.9-44.3,69.8-76.5C4360.4,705.6,4368.9,669,4368.9,628.2z"/>
			<path d="M4575.4,850.1c0,5.1-1.9,9.6-5.7,13.4c-3.8,3.8-8.3,5.7-13.4,5.7c-5.7,0-10.4-1.9-13.9-5.7c-3.5-3.8-5.3-8.3-5.3-13.4
				V180.7c0-5.1,1.9-9.6,5.7-13.4s8.3-5.7,13.4-5.7c5.7,0,10.4,1.9,13.9,5.7c3.5,3.8,5.3,8.3,5.3,13.4V850.1z"/>
			<path d="M5130.1,392c5.7,0,10.4,1.9,13.9,5.7c3.5,3.8,5.3,8.3,5.3,13.4v439c0,5.1-1.9,9.6-5.7,13.4c-3.8,3.8-8.3,5.7-13.4,5.7
				c-5.7,0-10.4-1.9-13.9-5.7c-3.5-3.8-5.3-8.3-5.3-13.4V714.3l15.3-12.4c0,20.4-5.1,41.1-15.3,62.2c-10.2,21-24.2,40.2-42.1,57.4
				c-17.9,17.2-38.9,31.1-63.1,41.6c-24.2,10.5-50.4,15.8-78.4,15.8c-42.7,0-80.8-11.1-114.3-33.5c-33.5-22.3-59.8-52.6-78.9-90.9
				s-28.7-81.3-28.7-129.1c0-48.4,9.7-91.3,29.2-128.6c19.4-37.3,45.9-66.6,79.4-88c33.5-21.4,71.2-32,113.3-32
				c27.4,0,53.2,4.9,77.5,14.8c24.2,9.9,45.4,23.8,63.6,41.6c18.2,17.9,32.4,38.7,42.6,62.6c10.2,23.9,15.3,49.9,15.3,77.9
				l-15.3-23.9V411.2c0-5.1,1.7-9.6,5.3-13.4C5119.7,393.9,5124.4,392,5130.1,392z M4929.3,842.5c35.7,0,67.6-9.4,95.6-28.2
				c28-18.8,50-44.6,66-77.5c15.9-32.8,23.9-70,23.9-111.4c0-39.5-8-75.4-23.9-107.6c-15.9-32.2-37.9-57.7-66-76.5
				c-28.1-18.8-59.9-28.2-95.6-28.2c-35.1,0-66.6,9.1-94.7,27.3c-28.1,18.2-50.2,43.2-66.5,75.1c-16.3,31.9-24.4,68.5-24.4,110
				c0,41.5,8,78.6,23.9,111.4c15.9,32.8,37.9,58.7,66,77.5C4861.7,833.1,4893.6,842.5,4929.3,842.5z"/>
			<path d="M5285,374.8c3.2,0,6.5,1.1,10,3.3c3.5,2.2,5.9,5.3,7.2,9.1l176.9,423.7l-9.6,6.7l179.8-430.3c3.2-8.3,9.9-12.4,20.1-12.4
				c3.2,0,7,1.3,11.5,3.8c4.5,2.6,6.7,6.4,6.7,11.5c0,3.2-0.3,5.6-1,7.2c-0.6,1.6-1.3,3-1.9,4.3l-190.3,455.2
				c-3.2,8.3-9.3,12.4-18.2,12.4c-3.8,0-7.5-1.1-11-3.3c-3.5-2.2-5.9-5.3-7.2-9.1l-191.3-454.3c-0.6-1.3-1.1-2.7-1.4-4.3
				c-0.3-1.6-0.5-3-0.5-4.3c0-5.1,1.6-9.6,4.8-13.4C5272.9,376.7,5278,374.8,5285,374.8z"/>
			<path d="M6014.7,878.8c-47.8,0-90.1-10.2-126.7-30.6c-36.7-20.4-65.5-49.3-86.5-86.5s-31.6-81.1-31.6-131.5
				c0-53.6,10.4-99.1,31.1-136.8c20.7-37.6,47.5-66.5,80.3-86.5c32.8-20.1,67.7-30.1,104.7-30.1c26.8,0,52.9,4.3,78.4,12.9
				c25.5,8.6,48.3,22,68.4,40.2s36.3,40.8,48.8,67.9c12.4,27.1,19.3,59.5,20.6,97.1c0,5.1-1.9,9.7-5.7,13.9
				c-3.8,4.2-8.3,6.2-13.4,6.2h-390.2l-5.7-36.3h385.4l-9.6,8.6v-17.2c-3.2-33.8-13.9-62.2-32-85.1c-18.2-23-40-40.3-65.5-52.1
				c-25.5-11.8-52-17.7-79.4-17.7c-19.1,0-39.2,4.3-60.2,12.9s-40.5,21.7-58.3,39.2c-17.9,17.5-32.4,39.7-43.5,66.5
				c-11.2,26.8-16.7,58-16.7,93.7c0,38.9,7.8,74.6,23.4,107.1c15.6,32.5,38.9,58.7,69.8,78.4c30.9,19.8,69,29.6,114.3,29.6
				c21.7,0,42.1-3.7,61.2-11c19.1-7.3,36.3-17,51.6-29.2c15.3-12.1,27.7-25.2,37.3-39.2c5.1-5.7,10.5-8.6,16.3-8.6
				c4.5,0,8.3,1.8,11.5,5.3c3.2,3.5,4.8,7.5,4.8,12c0,4.5-1.3,8.3-3.8,11.5c-19.8,25.5-45.1,47.8-76,66.9
				C6086.6,869.2,6052.3,878.8,6014.7,878.8z"/>
			<path d="M4786.8,1374.8c5.1,0,9.7,1.4,13.9,4.3c4.1,2.9,6.2,7.5,6.2,13.9c0,0.6-0.2,2.1-0.5,4.3c-0.3,2.2-0.8,4-1.4,5.3
				l-148.2,454.3c-1.9,3.8-4.5,6.9-7.7,9.1c-3.2,2.2-6.7,3.3-10.5,3.3c-7.7,0-13.7-4.1-18.2-12.4L4473.1,1525l14.3,4.8l-130.1,327.1
				c-3.2,8.3-9.3,12.4-18.2,12.4c-3.8,0-7.5-1.1-11-3.3c-3.5-2.2-5.9-5.3-7.2-9.1l-153-454.3c-1.3-3.8-1.9-7-1.9-9.6
				c0-5.7,1.9-10.2,5.7-13.4c3.8-3.2,8.6-4.8,14.3-4.8c3.8,0,7.3,1.1,10.5,3.3c3.2,2.2,5.4,5.3,6.7,9.1l142.5,439h-16.3l135.8-336.6
				c3.2-8.3,9.2-12.4,18.2-12.4c3.8,0,7.5,1.1,11,3.3c3.5,2.2,5.9,5.3,7.2,9.1l146.3,337.6H4629l140.6-439.9
				C4772.8,1379,4778.5,1374.8,4786.8,1374.8z"/>
			<path d="M5360.6,1628.2c0,47.2-10.2,89.7-30.6,127.7c-20.4,37.9-48.3,67.9-83.7,89.9c-35.4,22-75.7,33-121,33
				c-44.6,0-84.8-11-120.5-33c-35.7-22-63.9-52-84.6-89.9c-20.7-37.9-31.1-80.5-31.1-127.7c0-47.8,10.4-90.7,31.1-128.6
				c20.7-37.9,48.9-67.9,84.6-89.9c35.7-22,75.9-33,120.5-33c45.3,0,85.6,11,121,33c35.4,22,63.3,52,83.7,89.9
				C5350.4,1537.6,5360.6,1580.4,5360.6,1628.2z M5322.3,1628.2c0-41.4-8.5-78.3-25.3-110.5c-16.9-32.2-40.2-57.7-69.8-76.5
				c-29.6-18.8-63.6-28.2-101.8-28.2c-37.6,0-71.4,9.4-101.4,28.2c-30,18.8-53.6,44.3-70.8,76.5c-17.2,32.2-25.8,69-25.8,110.5
				c0,40.8,8.6,77.3,25.8,109.5c17.2,32.2,40.8,57.7,70.8,76.5c30,18.8,63.7,28.2,101.4,28.2c38.3,0,72.2-9.4,101.8-28.2
				c29.6-18.8,52.9-44.3,69.8-76.5C5313.9,1705.6,5322.3,1669,5322.3,1628.2z"/>
			<path d="M5528.9,1850.1c0,5.1-1.9,9.6-5.7,13.4s-8.3,5.7-13.4,5.7c-5.7,0-10.4-1.9-13.9-5.7c-3.5-3.8-5.3-8.3-5.3-13.4v-669.4
				c0-5.1,1.9-9.6,5.7-13.4c3.8-3.8,8.3-5.7,13.4-5.7c5.7,0,10.4,1.9,13.9,5.7c3.5,3.8,5.3,8.3,5.3,13.4V1850.1z"/>
			<path d="M5885.6,1397.8c5.1,0,9.4,1.8,12.9,5.3c3.5,3.5,5.3,7.8,5.3,12.9c0,5.1-1.8,9.4-5.3,12.9c-3.5,3.5-7.8,5.3-12.9,5.3H5658
				c-4.5,0-8.6-1.9-12.4-5.7s-5.7-8-5.7-12.4c0-5.7,1.9-10.2,5.7-13.4c3.8-3.2,8-4.8,12.4-4.8H5885.6z M5841.6,1166.3
				c7.7,0,16.7,0.6,27.3,1.9c10.5,1.3,19.8,3.8,27.7,7.7c8,3.8,12,9.6,12,17.2c0,4.5-1.8,8.8-5.3,12.9c-3.5,4.2-7.8,6.2-12.9,6.2
				c-6.4,0-14-1.9-23-5.7c-8.9-3.8-18.8-5.7-29.6-5.7c-12.8,0-24.1,2.9-34,8.6c-9.9,5.7-17.5,14.5-23,26.3
				c-5.4,11.8-8.1,26.9-8.1,45.4v569c0,5.1-1.9,9.6-5.7,13.4s-8.3,5.7-13.4,5.7c-5.7,0-10.4-1.9-13.9-5.7c-3.5-3.8-5.3-8.3-5.3-13.4
				v-569c0-39.5,10.5-68.5,31.6-87C5787.1,1175.6,5812.3,1166.3,5841.6,1166.3z M6203.1,1397.8c5.1,0,9.4,1.8,12.9,5.3
				c3.5,3.5,5.3,7.8,5.3,12.9c0,5.1-1.8,9.4-5.3,12.9c-3.5,3.5-7.8,5.3-12.9,5.3h-227.6c-4.5,0-8.6-1.9-12.4-5.7s-5.7-8-5.7-12.4
				c0-5.7,1.9-10.2,5.7-13.4c3.8-3.2,8-4.8,12.4-4.8H6203.1z M6159.1,1166.3c7.7,0,16.7,0.6,27.3,1.9c10.5,1.3,19.8,3.8,27.7,7.7
				c8,3.8,12,9.6,12,17.2c0,4.5-1.8,8.8-5.3,12.9c-3.5,4.2-7.8,6.2-12.9,6.2c-6.4,0-14-1.9-23-5.7c-8.9-3.8-18.8-5.7-29.6-5.7
				c-12.8,0-24.1,2.9-34,8.6c-9.9,5.7-17.5,14.5-23,26.3c-5.4,11.8-8.1,26.9-8.1,45.4v569c0,5.1-1.9,9.6-5.7,13.4s-8.3,5.7-13.4,5.7
				c-5.7,0-10.4-1.9-13.9-5.7c-3.5-3.8-5.3-8.3-5.3-13.4v-569c0-39.5,10.5-68.5,31.6-87C6104.6,1175.6,6129.8,1166.3,6159.1,1166.3z
				"/>
		</g>
	</g>
	<g>
		<g>
			<path d="M1137,2770.8c-7.3,0-13.5-1.3-18.6-4c-5.1-2.7-8.9-6.5-11.3-11.5c-2.4-5-3.3-10.8-2.6-17.3l3.3-28.1l5.1-2.9
				c-5.3,13.1-12.4,24.5-21.1,34.1c-8.7,9.6-18.3,17-28.6,22.1c-10.3,5.1-20.7,7.7-31.2,7.7c-10.9,0-20.4-2.8-28.3-8.4
				c-7.9-5.6-14-12.9-18.4-22.1s-6.6-19-6.6-29.7c0-11.4,2.2-23.3,6.6-35.5c4.4-12.3,10.5-23.8,18.4-34.4
				c7.9-10.7,17.2-19.3,27.9-25.9c10.7-6.6,22.4-9.8,35-9.8c16,0,28.7,4.9,37.9,14.6c9.2,9.7,14.9,21.1,17.1,34.3l-6.2,16.4
				l8.4-53.2c0.5-2.7,1.3-4.7,2.6-6.2c1.2-1.5,3.2-2.2,5.8-2.2c2.7,0,4.5,0.8,5.5,2.4c1,1.6,1.2,4.2,0.7,7.8l-18.2,115.2
				c-1.2,8.3,0.1,14.2,4,17.9c3.9,3.6,8.1,5.5,12.8,5.5c9.2,0,17.9-3.2,25.9-9.7c8-6.4,15.2-14.9,21.5-25.5
				c6.3-10.6,11.2-22.5,14.8-35.7c3.5-13.2,5.3-26.5,5.3-39.9c0-19.9-4.6-37.4-13.9-52.5c-9.2-15.1-22.3-26.8-39.2-35.4
				c-16.9-8.5-36.8-12.8-59.6-12.8c-25.5,0-49.2,3.8-71.1,11.5c-21.9,7.7-41,18.8-57.4,33.5c-16.4,14.7-29.2,32.5-38.5,53.4
				c-9.2,20.9-13.9,44.7-13.9,71.4c0,14.8,2.3,29.4,6.9,43.7c4.6,14.3,11.8,27.3,21.5,38.8c9.7,11.5,22.3,20.7,37.7,27.5
				c15.4,6.8,34,10.2,55.6,10.2c13.4,0,24.7-1,34.1-3.1c9.4-2.1,17.7-4.8,25.2-8.2c7.4-3.4,15-6.8,22.8-10.2
				c1.2-0.5,2.7-0.7,4.4-0.7c1.7,0,3,1.2,4,3.6c1.7,4.1,0.6,7.2-3.3,9.1c-10.5,5.1-22.5,10.3-36.1,15.5c-13.6,5.2-30.6,7.8-51,7.8
				c-24.5,0-45.4-3.8-62.7-11.5c-17.3-7.7-31.3-17.9-42.1-30.8c-10.8-12.9-18.8-27.3-23.9-43.2c-5.1-15.9-7.7-32.1-7.7-48.7
				c0-28.4,5-54,15.1-76.6c10.1-22.6,24.1-41.9,41.9-58c17.9-16,38.6-28.3,62.2-36.6c23.6-8.4,49-12.6,76.2-12.6
				c27.7,0,51,5.2,70,15.5c19,10.3,33.2,24.2,42.8,41.6c9.6,17.4,14.4,36.5,14.4,57.4c0,14.8-2.1,29.6-6.4,44.3
				c-4.3,14.7-10.1,28.1-17.5,40.1c-7.4,12-16.1,21.7-26.1,29C1159.1,2767.1,1148.5,2770.8,1137,2770.8z M1032.8,2756.9
				c9.2,0,18.6-2.5,28.3-7.5c9.6-5,18.5-11.8,26.6-20.4c8.1-8.6,14.7-18.3,19.7-29.2c5-10.8,7.5-22.2,7.5-34.1
				c0-8.3-1.9-16-5.7-23.1c-3.8-7.2-9.2-12.9-16.4-17.3c-7.2-4.4-15.7-6.6-25.7-6.6c-11.4,0-21.6,2.9-30.6,8.7
				c-9,5.8-16.6,13.4-23,22.8c-6.3,9.4-11.1,19.3-14.4,29.9c-3.3,10.6-4.9,20.5-4.9,29.7c0,14.8,3.9,26.4,11.7,34.6
				C1013.6,2752.8,1022.6,2756.9,1032.8,2756.9z"/>
			<path d="M1343,2603.1c10.9,0,21.1,1.9,30.6,5.8c9.5,3.9,17.8,9,25,15.3c7.2,6.3,12.8,13.1,16.8,20.4c4,7.3,6,14.5,6,21.5
				l-4.7-13.5v-36.5c0-1.9,0.7-3.6,2-5.1c1.3-1.5,3.1-2.2,5.3-2.2c2.2,0,3.9,0.7,5.3,2.2c1.3,1.5,2,3.2,2,5.1V2773
				c0,18.7-3.8,34.9-11.5,48.5c-7.7,13.6-18.2,24.1-31.5,31.3c-13.4,7.3-28.9,10.9-46.7,10.9c-9.7,0-19.5-1.3-29.3-3.8
				s-18-5.8-24.6-9.7c-6.6-3.9-9.8-8-9.8-12.4c0-1.9,0.5-3.5,1.6-4.7c1.1-1.2,2.6-1.8,4.6-1.8c2.4,0,4.7,1.3,6.7,4
				c2.1,2.7,5.8,5.1,11.1,7.3c2.2,0.7,5.2,1.7,8.9,2.9c3.8,1.2,8.3,2.2,13.7,3.1c5.3,0.8,11.3,1.3,17.9,1.3
				c23.1,0,41.2-7.1,54.5-21.3c13.2-14.2,19.9-32.8,19.9-55.6v-36.1l3.6,0.4c-2.9,10.5-7.2,19.3-12.8,26.6
				c-5.6,7.3-12,13.2-19.1,17.7c-7.2,4.5-14.7,7.8-22.6,9.8c-7.9,2.1-15.5,3.1-22.8,3.1c-16.8,0-31.8-4.2-45-12.6
				c-13.2-8.4-23.8-19.8-31.5-34.3c-7.8-14.5-11.7-30.8-11.7-49s3.9-34.6,11.7-49c7.8-14.5,18.3-25.8,31.5-34.1
				C1311.2,2607.2,1326.2,2603.1,1343,2603.1z M1343.7,2616.9c-14.1,0-26.8,3.5-38.1,10.6c-11.3,7.1-20.2,16.7-26.6,29
				c-6.4,12.3-9.7,26.3-9.7,42.1c0,15.6,3.2,29.5,9.7,41.9c6.4,12.4,15.3,22.2,26.6,29.3c11.3,7.2,24,10.8,38.1,10.8
				c14.1,0,26.7-3.5,37.9-10.4c11.2-6.9,20-16.5,26.6-28.8c6.6-12.3,9.8-26.5,9.8-42.8c0-16.3-3.3-30.6-9.8-42.8
				c-6.6-12.3-15.4-21.8-26.6-28.6C1370.4,2620.3,1357.8,2616.9,1343.7,2616.9z"/>
			<path d="M1499,2790.8c-2.2,0-4-0.7-5.3-2.2c-1.3-1.5-2-3.2-2-5.1v-167.3c0-1.9,0.7-3.6,2.2-5.1c1.5-1.5,3.2-2.2,5.1-2.2
				c2.2,0,3.9,0.7,5.3,2.2c1.3,1.5,2,3.2,2,5.1v61.6l-6.2,9.5c0-9.5,1.6-19.1,4.9-28.8c3.3-9.7,8.1-18.8,14.4-27.2
				c6.3-8.4,14-15.2,23.1-20.4c9.1-5.2,19.6-7.8,31.5-7.8c3.4,0,7,0.5,10.9,1.5c3.9,1,5.8,3.3,5.8,6.9c0,2.2-0.6,4-1.8,5.5
				c-1.2,1.5-2.8,2.2-4.7,2.2c-1.5,0-3.2-0.5-5.3-1.6c-2.1-1.1-5-1.6-8.9-1.6c-7.8,0-15.4,2.3-23,6.9c-7.5,4.6-14.4,10.8-20.6,18.4
				c-6.2,7.7-11.1,16-14.8,25c-3.6,9-5.5,17.7-5.5,26.2v91.1c0,1.9-0.7,3.6-2.2,5.1S1500.9,2790.8,1499,2790.8z"/>
			<path d="M1792.8,2699c0,18-3.9,34.2-11.7,48.7c-7.8,14.5-18.4,25.9-31.9,34.3s-28.9,12.6-46.1,12.6c-17,0-32.3-4.2-45.9-12.6
				c-13.6-8.4-24.4-19.8-32.3-34.3c-7.9-14.5-11.8-30.7-11.8-48.7c0-18.2,3.9-34.6,11.8-49c7.9-14.5,18.6-25.9,32.3-34.3
				c13.6-8.4,28.9-12.6,45.9-12.6c17.3,0,32.6,4.2,46.1,12.6c13.5,8.4,24.1,19.8,31.9,34.3C1788.9,2664.4,1792.8,2680.7,1792.8,2699
				z M1778.2,2699c0-15.8-3.2-29.8-9.7-42.1c-6.4-12.3-15.3-22-26.6-29.2c-11.3-7.2-24.2-10.8-38.8-10.8c-14.3,0-27.2,3.6-38.6,10.8
				c-11.4,7.2-20.4,16.9-27,29.2c-6.6,12.3-9.8,26.3-9.8,42.1c0,15.6,3.3,29.5,9.8,41.7c6.6,12.3,15.5,22,27,29.2
				c11.4,7.2,24.3,10.8,38.6,10.8c14.6,0,27.5-3.6,38.8-10.8c11.3-7.2,20.2-16.9,26.6-29.2C1775,2728.4,1778.2,2714.5,1778.2,2699z"
				/>
			<path d="M2060.7,2602.4c1.9,0,3.7,0.5,5.3,1.6c1.6,1.1,2.4,2.9,2.4,5.3c0,0.2-0.1,0.8-0.2,1.6c-0.1,0.9-0.3,1.5-0.5,2
				l-56.5,173.1c-0.7,1.5-1.7,2.6-2.9,3.5c-1.2,0.9-2.6,1.3-4,1.3c-2.9,0-5.2-1.6-6.9-4.7l-56.1-126.5l5.5,1.8l-49.6,124.7
				c-1.2,3.2-3.5,4.7-6.9,4.7c-1.5,0-2.9-0.4-4.2-1.3c-1.3-0.8-2.2-2-2.7-3.5l-58.3-173.1c-0.5-1.5-0.7-2.7-0.7-3.6
				c0-2.2,0.7-3.9,2.2-5.1c1.5-1.2,3.3-1.8,5.5-1.8c1.5,0,2.8,0.4,4,1.3c1.2,0.9,2.1,2,2.6,3.5l54.3,167.3h-6.2l51.8-128.3
				c1.2-3.2,3.5-4.7,6.9-4.7c1.5,0,2.9,0.4,4.2,1.3c1.3,0.9,2.2,2,2.7,3.5l55.8,128.7h-7.3l53.6-167.7
				C2055.4,2603.9,2057.6,2602.4,2060.7,2602.4z"/>
			<path d="M2279.4,2699c0,18-3.9,34.2-11.7,48.7c-7.8,14.5-18.4,25.9-31.9,34.3s-28.9,12.6-46.1,12.6c-17,0-32.3-4.2-45.9-12.6
				c-13.6-8.4-24.4-19.8-32.3-34.3c-7.9-14.5-11.8-30.7-11.8-48.7c0-18.2,3.9-34.6,11.8-49c7.9-14.5,18.6-25.9,32.3-34.3
				c13.6-8.4,28.9-12.6,45.9-12.6c17.3,0,32.6,4.2,46.1,12.6c13.5,8.4,24.1,19.8,31.9,34.3C2275.5,2664.4,2279.4,2680.7,2279.4,2699
				z M2264.9,2699c0-15.8-3.2-29.8-9.7-42.1c-6.4-12.3-15.3-22-26.6-29.2c-11.3-7.2-24.2-10.8-38.8-10.8c-14.3,0-27.2,3.6-38.6,10.8
				c-11.4,7.2-20.4,16.9-27,29.2c-6.6,12.3-9.8,26.3-9.8,42.1c0,15.6,3.3,29.5,9.8,41.7c6.6,12.3,15.5,22,27,29.2
				c11.4,7.2,24.3,10.8,38.6,10.8c14.6,0,27.5-3.6,38.8-10.8c11.3-7.2,20.2-16.9,26.6-29.2C2261.6,2728.4,2264.9,2714.5,2264.9,2699
				z"/>
			<path d="M2343.6,2783.5c0,1.9-0.7,3.6-2.2,5.1c-1.5,1.5-3.2,2.2-5.1,2.2c-2.2,0-4-0.7-5.3-2.2c-1.3-1.5-2-3.2-2-5.1v-255.2
				c0-1.9,0.7-3.6,2.2-5.1s3.2-2.2,5.1-2.2c2.2,0,3.9,0.7,5.3,2.2c1.3,1.5,2,3.2,2,5.1V2783.5z"/>
			<path d="M2479.6,2611.1c1.9,0,3.6,0.7,4.9,2c1.3,1.3,2,3,2,4.9c0,1.9-0.7,3.6-2,4.9c-1.3,1.3-3,2-4.9,2h-86.8
				c-1.7,0-3.3-0.7-4.7-2.2c-1.5-1.5-2.2-3-2.2-4.7c0-2.2,0.7-3.9,2.2-5.1c1.5-1.2,3-1.8,4.7-1.8H2479.6z M2462.8,2522.9
				c2.9,0,6.4,0.2,10.4,0.7c4,0.5,7.5,1.5,10.6,2.9c3,1.5,4.6,3.6,4.6,6.6c0,1.7-0.7,3.3-2,4.9c-1.3,1.6-3,2.4-4.9,2.4
				c-2.4,0-5.3-0.7-8.7-2.2c-3.4-1.5-7.2-2.2-11.3-2.2c-4.9,0-9.2,1.1-12.9,3.3c-3.8,2.2-6.7,5.5-8.7,10c-2.1,4.5-3.1,10.3-3.1,17.3
				v216.9c0,1.9-0.7,3.6-2.2,5.1s-3.2,2.2-5.1,2.2c-2.2,0-4-0.7-5.3-2.2c-1.3-1.5-2-3.2-2-5.1v-216.9c0-15.1,4-26.1,12-33.2
				C2442,2526.4,2451.6,2522.9,2462.8,2522.9z M2600.6,2611.1c1.9,0,3.6,0.7,4.9,2c1.3,1.3,2,3,2,4.9c0,1.9-0.7,3.6-2,4.9
				c-1.3,1.3-3,2-4.9,2h-86.8c-1.7,0-3.3-0.7-4.7-2.2s-2.2-3-2.2-4.7c0-2.2,0.7-3.9,2.2-5.1c1.5-1.2,3-1.8,4.7-1.8H2600.6z
				 M2583.8,2522.9c2.9,0,6.4,0.2,10.4,0.7c4,0.5,7.5,1.5,10.6,2.9c3,1.5,4.6,3.6,4.6,6.6c0,1.7-0.7,3.3-2,4.9
				c-1.3,1.6-3,2.4-4.9,2.4c-2.4,0-5.3-0.7-8.7-2.2c-3.4-1.5-7.2-2.2-11.3-2.2c-4.9,0-9.2,1.1-12.9,3.3c-3.8,2.2-6.7,5.5-8.7,10
				c-2.1,4.5-3.1,10.3-3.1,17.3v216.9c0,1.9-0.7,3.6-2.2,5.1s-3.2,2.2-5.1,2.2c-2.2,0-4-0.7-5.3-2.2c-1.3-1.5-2-3.2-2-5.1v-216.9
				c0-15.1,4-26.1,12-33.2C2563,2526.4,2572.6,2522.9,2583.8,2522.9z"/>
		</g>
	</g>
	<g>
		<g>
			<path class="st1" d="M709.2,1989.5c-162.7,0-325.3,0-487.9,0c0-189.6,0-379.1,0-568.6c162.7,0,325.3,0,487.9,0
				C709.2,1610.5,709.2,1800,709.2,1989.5z M500.6,1774.9c-10.9,14.2-20.5,28-31.4,40.6c-15.9,18.4-32.2,36.5-49.2,53.8
				c-15,15.3-30.7,30.1-47.3,43.6c-14.4,11.7-19.4,25.9-17.2,43.4c0.9,7.2,4.6,9.3,11.4,7.5c15.8-4,28.7-13.1,39.8-24.4
				c16.4-16.6,32.4-33.6,48-51c8.7-9.8,16.1-20.8,24-31.2c8.7-11.5,17.9-22.7,25.7-34.7c4-6.2,9.1-5.6,14.1-4.6
				c1.6,0.3,2.6,5.4,3.3,8.5c0.5,2.3,0.6,4.9,0.1,7.2c-3.4,19.6-6.9,39.1-10.6,58.6c-2.1,11.3-6.1,22.7-1.9,34.1
				c3.9,10.6,6.7,22.4,13.5,31c12.4,15.6,31.3,22.6,50.3,25.7c19.5,3.2,39.6,3.6,59.4,4.1c19.1,0.5,38.2-0.5,56.7-6
				c8.3-2.4,13.3-7.9,14.8-16.1c1.5-8.3-1.4-16-5.2-23.3c-7.7-14.9-15.8-29.5-23.6-44.3c-5.7-10.8-11.2-21.6-16.9-32.4
				c-0.7-1.4-2-2.5-3.1-3.7c-1,1.5-2,3-2.8,4.3c-1.4-1-3.1-2.3-5.1-3.8c0,24.4,0,48.5,0,72.5c-6.3,0.4-11.8,0.9-17.2,1.1
				c-23.5,0.6-47.1,1.1-70.6,1.7c-4.8,0.1-8-2.4-9.2-6.5c-1.5-5-3.1-10.3-2.7-15.4c0.9-12.1,3.5-24,4.5-36.1
				c1.2-14.4,5.3-28.5,3.8-43.2c-1.1-10.9-3.9-20.8-12.7-27.8c-5.6-4.5-11.8-8.1-18.8-12.7c2.3-2,4.6-4.5,7.3-6.5
				c8.1-6.1,16.3-12.1,24.4-18.2c2.2-1.6,4.1-3.8,6.5-4.9c7.3-3.4,10.4-13.5,5.7-20.2c-8-11.2-19.1-16.5-32.6-17.3
				c-9.1-0.5-17.6,1.3-26,4.9c-9.2,4-14.4,1.9-20.2-6.2c-4.2-5.9-3.5-12.2-3.2-18.7c0.2-4.3,2.1-5.9,6.4-7.3
				c17-5.8,35.7-4.6,52.1-13.1c7.8-4.1,9.8-10.1,3-16c-11.9-10.3-25.9-14.7-41.7-11.7c-4,0.8-8,1.5-10.2,1.8
				c-2.1-7.5-2.8-14.1-5.7-19.6c-3-5.7-8-10.4-12.8-16.3c47.4-12.6,95.1-18.1,144.4-17.9c-18,29.2-44.7,46.5-72.4,64.3
				c2.7,0.2,4.8,0.5,6.9,0.4c10.2-0.4,20.4-0.9,30.6-1.2c4.2-0.1,8.6,1.3,12.4,0.2c12.8-3.7,25.2-8.4,37.9-12.2
				c11-3.3,19.9-9.8,27.9-17.5c3.3-3.1,4.8-8,7.5-11.8c6.4-8.9,7.3-14.9,1.1-23.4c-5.6-7.6-11.6-15.3-18.8-21.2
				c-15.6-12.8-32.3-24-54.4-19.9c-2.8,0.5-5.6,0.9-8.4,1.3c-26.3,3.6-52.7,7.3-79,10.7c-7,0.9-14.2,1.2-21.3,1.8
				c4.3-10.5,8.2-20.2,12.4-30.3c2.7,1.4,5,2.9,7.4,3.6c5.2,1.5,10.5,3.9,15.7,3.6c9.7-0.5,19.3-2.6,28.9-4.1
				c15.2-2.4,30.3-5.1,45.6-7.2c12.9-1.8,19.9-13.8,12.9-25c-4.3-6.9-10-13.3-16.4-18.3c-6.4-5.1-14.1-8.4-23.2-5.9
				c-13.7,3.7-27.6,6.6-41.3,9.9c-7.9,2-15.7,4.3-24.6,6.7c1.3-9.5,2.5-17.7,3.4-25.9c0.8-6.5,3-13.6,1.4-19.6
				c-6.1-22.9-23.4-35.4-44.4-43.6c-2.2-0.9-5.2,0.4-8.2,0.7c2.3,7.5,5.4,13.7,6.1,20.1c3.4,31,3.7,62-1.4,92.8
				c-2.7,16-7.8,31.2-19,43.4c-4.1,4.5-8.9,9.6-14.4,11.5c-12,4.1-24.6,7.4-37.2,9.1c-29.6,4-57.5,13.6-85.6,23
				c-4.3,1.4-8,4.8-12,7.3c0.1,0.7,0.3,1.4,0.4,2c4.2,1.9,8.2,4.1,12.5,5.5c16.8,5.6,25.6,12.4,24,32.7c-1.5,18-3.6,35.9-6.6,53.7
				c-4.3,25.7-12.9,50.1-21.5,74.7c-8.9,25.5-23.4,47.1-40.3,67.5c-5.6,6.7-12.2,12.4-18.6,18.4c-1.4,1.3-3.7,1.8-6,2.9
				c0-2.5,0-4.1,0-6.9c-3.1,8.7-11.6,12.2-13.1,20.3c-0.1,0.4-1,0.7-1.4,1.1c-5.5,5.9-3.4,13.9,4.2,16.1c8.7,2.5,16.5-0.8,23.9-4.6
				c14.5-7.4,27.9-16.4,39.8-27.8c14.2-13.6,28.2-27.3,38-44.5c8.3-14.6,16.5-29.4,22.9-44.9c6.7-16.3,11.6-33.4,16.6-50.4
				c2.9-10,4.5-20.4,6.5-30.7c0.7-3.7,2.9-4.6,6.1-4.2c6.6,0.8,13.4,1.2,19.9,2.3c9,1.6,17.9,3,27.1,0.6c4.9-1.3,10.2-1.2,15.1-1.7
				c1.9,8.2,3.6,16.3,5.7,24.3c4.7,17.9,17.6,34.3,39.2,36.2C494.5,1774.5,496.9,1774.6,500.6,1774.9z"/>
			<path d="M500.6,1774.9c-3.7-0.3-6.1-0.4-8.5-0.6c-21.7-2-34.6-18.4-39.2-36.2c-2.1-8-3.8-16.1-5.7-24.3
				c-4.9,0.5-10.2,0.4-15.1,1.7c-9.2,2.3-18.1,1-27.1-0.6c-6.6-1.2-13.3-1.6-19.9-2.3c-3.2-0.4-5.4,0.5-6.1,4.2
				c-2,10.3-3.6,20.7-6.5,30.7c-5,17-9.8,34.1-16.6,50.4c-6.4,15.5-14.6,30.3-22.9,44.9c-9.7,17.2-23.8,30.9-38,44.5
				c-11.8,11.4-25.3,20.3-39.8,27.8c-7.4,3.8-15.1,7.1-23.9,4.6c-7.6-2.2-9.7-10.2-4.2-16.1c0.4-0.4,1.3-0.7,1.4-1.1
				c1.6-8.2,10-11.7,13.1-20.3c0,2.9,0,4.4,0,6.9c2.3-1.1,4.6-1.5,6-2.9c6.4-6,13-11.7,18.6-18.4c17-20.3,31.4-42,40.3-67.5
				c8.6-24.5,17.2-49,21.5-74.7c3-17.8,5.1-35.7,6.6-53.7c1.6-20.3-7.1-27.1-24-32.7c-4.3-1.4-8.3-3.7-12.5-5.5
				c-0.1-0.7-0.3-1.4-0.4-2c4-2.5,7.6-5.9,12-7.3c28.1-9.3,56-19,85.6-23c12.6-1.7,25.1-5,37.2-9.1c5.5-1.9,10.3-6.9,14.4-11.5
				c11.2-12.2,16.3-27.3,19-43.4c5.1-30.9,4.9-61.8,1.4-92.8c-0.7-6.5-3.8-12.7-6.1-20.1c3-0.3,6-1.5,8.2-0.7
				c21,8.2,38.3,20.7,44.4,43.6c1.6,6-0.7,13-1.4,19.6c-0.9,8.2-2.1,16.4-3.4,25.9c8.8-2.4,16.7-4.7,24.6-6.7
				c13.8-3.4,27.6-6.2,41.3-9.9c9.1-2.5,16.8,0.8,23.2,5.9c6.4,5,12.1,11.4,16.4,18.3c7,11.1,0,23.2-12.9,25
				c-15.2,2.1-30.4,4.8-45.6,7.2c-9.6,1.5-19.2,3.6-28.9,4.1c-5.2,0.3-10.5-2.1-15.7-3.6c-2.4-0.7-4.7-2.2-7.4-3.6
				c-4.2,10.2-8.1,19.8-12.4,30.3c7.1-0.6,14.3-0.8,21.3-1.8c26.4-3.5,52.7-7.1,79-10.7c2.8-0.4,5.6-0.8,8.4-1.3
				c22-4.1,38.7,7.1,54.4,19.9c7.2,5.9,13.2,13.6,18.8,21.2c6.2,8.4,5.3,14.5-1.1,23.4c-2.7,3.8-4.2,8.7-7.5,11.8
				c-8.1,7.6-16.9,14.1-27.9,17.5c-12.7,3.8-25.1,8.6-37.9,12.2c-3.8,1.1-8.3-0.4-12.4-0.2c-10.2,0.3-20.4,0.8-30.6,1.2
				c-2.1,0.1-4.2-0.2-6.9-0.4c27.7-17.8,54.4-35.1,72.4-64.3c-49.3-0.1-97,5.4-144.4,17.9c4.8,5.9,9.8,10.6,12.8,16.3
				c2.9,5.5,3.6,12.1,5.7,19.6c2.1-0.4,6.2-1.1,10.2-1.8c15.8-3,29.8,1.4,41.7,11.7c6.8,5.9,4.8,11.9-3,16
				c-16.4,8.5-35.1,7.3-52.1,13.1c-4.2,1.4-6.1,3-6.4,7.3c-0.3,6.5-1,12.9,3.2,18.7c5.8,8.1,10.9,10.2,20.2,6.2
				c8.4-3.6,16.9-5.4,26-4.9c13.5,0.8,24.6,6.1,32.6,17.3c4.7,6.6,1.6,16.8-5.7,20.2c-2.4,1.1-4.4,3.3-6.5,4.9
				c-8.1,6.1-16.3,12-24.4,18.2c-2.6,2-5,4.4-7.3,6.5c7,4.7,13.3,8.3,18.8,12.7c8.8,7,11.6,16.9,12.7,27.8
				c1.5,14.7-2.6,28.8-3.8,43.2c-1,12.1-3.6,24-4.5,36.1c-0.4,5,1.2,10.4,2.7,15.4c1.2,4.1,4.5,6.6,9.2,6.5
				c23.5-0.6,47.1-1,70.6-1.7c5.4-0.1,10.9-0.7,17.2-1.1c0-24,0-48,0-72.5c2,1.5,3.7,2.8,5.1,3.8c0.9-1.3,1.9-2.8,2.8-4.3
				c1,1.2,2.3,2.3,3.1,3.7c5.7,10.8,11.2,21.6,16.9,32.4c7.8,14.8,15.9,29.5,23.6,44.3c3.8,7.2,6.7,15,5.2,23.3
				c-1.5,8.2-6.5,13.6-14.8,16.1c-18.6,5.5-37.7,6.4-56.7,6c-19.9-0.5-39.9-0.9-59.4-4.1c-19-3.1-37.8-10.1-50.3-25.7
				c-6.8-8.5-9.6-20.4-13.5-31c-4.2-11.5-0.3-22.8,1.9-34.1c3.7-19.5,7.2-39.1,10.6-58.6c0.4-2.3,0.4-4.9-0.1-7.2
				c-0.7-3-1.7-8.1-3.3-8.5c-5-1-10.1-1.6-14.1,4.6c-7.8,12.1-17,23.2-25.7,34.7c-7.9,10.5-15.3,21.5-24,31.2
				c-15.5,17.4-31.6,34.4-48,51c-11.2,11.3-24,20.4-39.8,24.4c-6.8,1.7-10.6-0.4-11.4-7.5c-2.1-17.5,2.8-31.7,17.2-43.4
				c16.6-13.5,32.3-28.3,47.3-43.6c17-17.3,33.4-35.4,49.2-53.8C480.1,1802.9,489.6,1789.1,500.6,1774.9z M378.8,1700.8
				c23.9-7.8,46.2-15.2,68.6-22.3c3.1-1,4.8-2.3,4.8-5.8c0-12,0.2-23.9,0.5-35.9c0.1-5.3-2.5-6.7-7.3-5.7
				c-23.1,5.1-46.3,10.1-69.4,15.3c-5.3,1.2-10.3,3.1-16.7,5C372.3,1666,381.8,1681.2,378.8,1700.8z"/>
			<path class="st1" d="M378.8,1700.8c3-19.6-6.5-34.8-19.5-49.3c6.3-1.9,11.4-3.8,16.7-5c23.1-5.2,46.3-10.2,69.4-15.3
				c4.8-1.1,7.4,0.3,7.3,5.7c-0.3,12-0.5,23.9-0.5,35.9c0,3.5-1.7,4.8-4.8,5.8C425.1,1685.7,402.8,1693,378.8,1700.8z"/>
		</g>
	</g>
</g>
</svg>
